<?xml version="1.0" encoding="utf-8"?>
<!-- Generator: Adobe Illustrator 24.3.0, SVG Export Plug-In . SVG Version: 6.00 Build 0)  -->
<svg version="1.1" xmlns="http://www.w3.org/2000/svg" xmlns:xlink="http://www.w3.org/1999/xlink" x="0px" y="0px"
	 viewBox="0 0 800 600" style="enable-background:new 0 0 800 600;" xml:space="preserve">
<style type="text/css">
	.st0{fill:#F2F2F2;}
	.st1{fill:none;stroke:#FAC141;stroke-width:7.5;stroke-linecap:round;stroke-linejoin:round;stroke-dasharray:0.75,11.25;}
	.st2{fill:none;stroke:#009EF1;stroke-width:7.5;stroke-linecap:round;stroke-linejoin:round;stroke-dasharray:0.75,11.25;}
	.st3{fill:none;stroke:#45B046;stroke-width:7.5;stroke-linecap:round;stroke-linejoin:round;stroke-dasharray:0.75,11.25;}
	.st4{fill:#A50104;stroke:#A50104;stroke-width:0.1;}
	.st5{fill:none;stroke:#773BED;stroke-width:7.5;stroke-linecap:round;stroke-linejoin:round;stroke-dasharray:0.75,11.25;}
	.st6{fill:none;stroke:#171612;stroke-width:7.5;stroke-linecap:round;stroke-linejoin:round;stroke-dasharray:0.75,11.25;}
	.st7{fill:none;stroke:#A2AFB8;stroke-width:1.56;stroke-linecap:round;stroke-linejoin:round;}
	.st8{fill:none;stroke:#171612;stroke-width:3.6;stroke-linecap:round;stroke-linejoin:round;}
	.st9{fill:none;stroke:#171612;stroke-width:1.56;stroke-linecap:round;stroke-linejoin:round;}
	.st10{fill:#171612;stroke:#171612;stroke-width:0.1;}
	.st11{fill:none;stroke:#000000;stroke-width:5;stroke-linecap:round;stroke-linejoin:round;}
	.st12{fill:#009EF1;}
	.st13{fill:#45B046;}
	.st14{fill:#FAC141;}
	.st15{fill:#A50104;}
	.st16{fill:#773BED;}
</style>
<g id="Layer_1">
	<rect x="-0.3" y="-0.7" class="st0" width="800.3" height="600.7"/>
	<path id="STROKE_4d79d503-ebb0-4970-8d0b-448bf84f18ae" class="st1" d="M167.7,320.7c0.1,0.3,0.1,0.5,0.2,0.8
		c0.8,0.1,0.1,0.1-2.1,0c-0.5,0.4-0.7,1.4-0.5,2.9c0.2,1.6,0.4,2.5,0.6,2.7"/>
	<path id="STROKE_9c4ada54-5834-4104-836c-962e7ac3ef26" class="st2" d="M398.2,137.9c0,0.1,0,0.1,0,0.2c1.8-0.8,2.2-1.2,1.3-1.1
		c-0.9,0.1,0,0.1,2.7,0.2c2.7,0,4.2,0.3,4.6,0.8"/>
	<path id="STROKE_97fbaf2c-08a0-4472-9312-78e768200b22" class="st3" d="M398.2,256.7c0,0.2,0,0.4,0,0.6c-2,0.4-3.7,1-5.1,1.8
		c-1.4,0.9-2.2,1.3-2.7,1.4"/>
	<circle id="STROKE_758d3994-7b9d-492b-b63e-78362dbe98aa" class="st4" cx="397.6" cy="386.3" r="4.6"/>
	<path id="STROKE_aae75423-5b25-409e-a680-9fddacfdc86f" class="st5" d="M398.8,507.1c0.3,0,0.8,0,1.6,0c-0.1,0.4-0.1,0.5,0,0.2
		c0.1-0.3,0.3-0.9,0.6-1.8c0.3-1,0.7-1.7,1-2.2c0.3-0.5,0.7-1,1.1-1.5"/>
	<path id="STROKE_13cdd02c-03e0-46e7-acb4-5bef896248e7" class="st6" d="M621.7,322.4c0,0.1,0,0.2-0.1,0.3c-1.6,0-2.1,0-1.6,0
		c-1.1-0.1-1.4-0.2-1.1-0.3c-0.6-1.2-0.5-2,0.2-2.4c0.7-0.3,1.3-0.7,1.6-1"/>
	<g id="New_Layer_1">
		<path id="STROKE_82b6f342-d310-4c02-8816-c105726140bc" class="st7" d="M387.7,494.2c-0.5-0.2-2-1-4.5-2.4
			c-2.5-1.3-6.1-3.3-10.9-6c-4.8-2.7-8.4-4.8-10.9-6.4c-2.5-1.6-6.3-4.2-11.4-7.8c-5.1-3.6-8.5-6.2-10.3-7.6c-1.8-1.5-4.1-3.5-6.9-6
			c-2.8-2.5-5.4-5.1-7.9-7.7c-2.5-2.6-4.5-4.8-6.1-6.7c-1.6-1.9-2.8-3.5-3.7-4.7c-0.9-1.2-2.5-3.6-4.7-7.2c-2.2-3.6-3.9-6.4-4.9-8.4
			c-1-2-1.8-3.8-2.4-5.2c-0.6-1.5-1.2-3-1.8-4.6c-0.6-1.6-1.1-3.2-1.6-4.7c-0.5-1.5-1-3.3-1.6-5.4c-0.6-2.1-0.9-3.6-1.1-4.6
			c-0.2-0.9-0.5-2.5-0.9-4.6c-0.4-2.1-0.7-4.2-0.9-6.3c-0.3-2.1-0.4-3.9-0.5-5.4c-0.1-1.5-0.2-3.7-0.2-6.6c0-2.9,0-5.5,0.1-7.8
			c0.1-2.3,0.3-4.1,0.4-5.3c0.1-1.2,0.3-2.8,0.6-4.8c0.3-1.9,0.7-3.9,1.1-5.8s0.9-3.9,1.5-5.8c0.6-2,1.1-3.6,1.6-5
			c0.5-1.4,1-2.7,1.5-4c0.5-1.3,1.4-3.2,2.7-5.9c1.3-2.7,2.4-4.8,3.2-6.2c0.8-1.4,1.8-3.1,3-4.9c1.2-1.8,2.5-3.7,3.9-5.5
			c1.4-1.8,2.7-3.5,4-5c1.3-1.5,3-3.3,5.1-5.5c2.2-2.2,3.8-3.8,5.1-4.9s2.7-2.3,4.5-3.8c1.7-1.4,3.1-2.4,4-3.1
			c0.9-0.7,2.2-1.6,3.9-2.8c1.7-1.2,3.3-2.2,4.8-3.2c1.5-0.9,5.4-3,11.6-6.2c6.2-3.2,10.3-5.2,12.1-5.9c1.8-0.8,3.7-1.5,5.6-2.2
			c1.9-0.7,3.5-1.3,4.6-1.7c1.2-0.4,2.9-1,5.3-1.8"/>
		<path id="STROKE_5176ef9f-692f-461c-9035-f09ccbae55ec" class="st7" d="M383.1,496c-2.5-0.9-4.9-1.8-7.2-2.6s-5-1.9-8-3.1
			c-3-1.2-5.9-2.4-8.6-3.6c-2.7-1.2-5.6-2.6-8.8-4.1c-3.2-1.6-6.5-3.3-9.8-5.2c-3.4-1.9-6.1-3.5-8.2-4.9c-2.1-1.3-3.6-2.3-4.5-3
			c-0.9-0.6-1.6-1.1-2.1-1.4c-0.5-0.3-1.9-1.4-4.5-3.3c-2.5-1.9-5.1-3.9-7.7-6.1c-2.6-2.2-4.8-4-6.5-5.6c-1.7-1.6-3.3-3-4.7-4.4
			c-1.4-1.4-2.5-2.4-3.1-3c-0.6-0.6-2-2.1-4.1-4.3c-2.1-2.2-4.2-4.6-6.4-7.1c-2.2-2.5-4.1-4.8-5.7-6.9c-1.6-2.1-2.8-3.6-3.6-4.6
			c-0.8-1-2-2.8-3.7-5.2c-1.7-2.4-3.2-4.6-4.5-6.6c-1.3-2-3.1-5.1-5.5-9.2c-2.4-4.1-4.1-7.3-5.1-9.4c-1.1-2.1-2.1-4.3-3-6.4
			s-2-4.6-3.1-7.4c-1.1-2.8-2.4-6.4-3.7-10.7c-1.4-4.4-2.3-7.5-2.8-9.4c-0.5-1.9-1-4.1-1.4-6.4c-0.5-2.3-0.9-5.4-1.4-9.2
			c-0.5-3.8-0.8-7.2-1-10.3s-0.2-6.7-0.2-10.8c0.1-4.2,0.2-7.4,0.4-9.8c0.2-2.4,0.4-4.4,0.7-6.3c0.2-1.8,0.5-3.8,0.8-5.8
			c0.3-2.1,1.1-5.9,2.4-11.6c1.2-5.6,2.4-10.4,3.6-14.3c1.1-3.9,2.4-7.7,3.8-11.6c1.4-3.8,2.6-7,3.7-9.6c1.1-2.6,2-4.5,2.6-5.8
			c0.6-1.3,1.1-2.3,1.4-3c0.3-0.7,1-2,2.2-4.1c1.1-2.1,2.1-3.9,3-5.5c0.9-1.5,2-3.3,3.2-5.2c1.2-1.9,2.4-3.7,3.5-5.3
			c1.1-1.6,2.3-3.2,3.4-4.7c1.2-1.5,2.1-2.7,2.7-3.5c0.6-0.8,2.5-2.9,5.6-6.5c3.1-3.5,5.1-5.7,5.9-6.6c0.9-0.9,3.9-3.8,9.2-8.6
			c5.3-4.8,9.1-8.2,11.4-10c2.3-1.8,4.2-3.2,5.5-4.1c1.3-1,3.6-2.5,6.8-4.5c3.2-2.1,5.7-3.6,7.7-4.7c1.9-1.1,3.5-1.9,4.7-2.6
			c1.2-0.6,3.7-1.8,7.5-3.6c3.8-1.7,7.5-3.3,11.3-4.7c3.8-1.4,6.9-2.5,9.2-3.3c2.3-0.8,4-1.3,5-1.6c1-0.3,4.8-1.4,11.4-3.4l0.1-0.1"
			/>
		<path id="STROKE_ced0d10b-d856-4181-9523-1b3047fd7223" class="st7" d="M393.1,372.7c-1.1-3.1-2-5.5-2.6-7.1
			c-0.6-1.6-1.4-4-2.3-7.2c-1-3.2-1.7-5.6-2.1-7.2c-0.4-1.6-0.7-2.8-0.9-3.6c-0.2-0.8-0.4-1.8-0.6-3c-0.2-1.2-0.5-2.8-0.8-4.7
			c-0.3-1.9-0.5-3.5-0.6-4.6c-0.1-1.1-0.2-3-0.4-5.6c-0.1-2.6-0.2-4.3-0.2-5c0-0.7,0.1-2.3,0.2-4.8c0.1-2.5,0.3-4.7,0.5-6.7
			c0.2-2,0.5-4.4,0.9-7c0.4-2.6,0.9-5.5,1.6-8.5c0.7-3,1.2-5.5,1.7-7.3c0.5-1.8,0.9-3.5,1.3-4.9c0.4-1.4,0.9-3.3,1.6-5.6
			c0.7-2.3,1.4-4.9,2.3-7.8"/>
		<path id="STROKE_eaf3e4d8-bda5-454c-9fe3-2cc2d92b079d" class="st7" d="M401,269.7c1.1,3.1,2,5.5,2.6,7.1c0.6,1.6,1.4,4,2.3,7.2
			c1,3.2,1.7,5.6,2.1,7.2c0.4,1.6,0.7,2.8,0.9,3.6c0.2,0.8,0.4,1.8,0.6,3c0.2,1.2,0.5,2.8,0.8,4.7c0.3,1.9,0.5,3.5,0.6,4.6
			c0.1,1.1,0.2,3,0.4,5.6c0.1,2.6,0.2,4.3,0.2,5c0,0.7-0.1,2.3-0.2,4.8c-0.1,2.5-0.3,4.7-0.5,6.7c-0.2,2-0.5,4.4-0.9,7
			c-0.4,2.6-0.9,5.5-1.6,8.5c-0.7,3-1.2,5.5-1.7,7.3c-0.5,1.8-0.9,3.5-1.3,4.9c-0.4,1.4-0.9,3.3-1.6,5.6c-0.7,2.3-1.4,4.9-2.3,7.8"
			/>
		<path id="STROKE_0f44325b-9763-4c60-b82b-34d5cfee5a39" class="st7" d="M394.7,246.3c-1.2-2.7-2.1-4.8-2.7-6.3
			c-0.6-1.4-1.4-3.6-2.5-6.4c-1-2.8-1.8-4.9-2.2-6.3c-0.4-1.4-0.8-2.5-0.9-3.2c-0.2-0.7-0.4-1.6-0.7-2.6c-0.3-1.1-0.5-2.4-0.9-4.1
			c-0.3-1.7-0.5-3-0.7-4c-0.1-1-0.2-2.6-0.4-4.9c-0.1-2.3-0.2-3.8-0.2-4.4c0-0.6,0.1-2,0.2-4.2c0.1-2.2,0.3-4.1,0.5-5.9
			c0.2-1.8,0.6-3.8,1-6.2c0.4-2.3,1-4.8,1.7-7.5c0.7-2.7,1.3-4.8,1.8-6.4c0.5-1.6,1-3.1,1.4-4.3c0.4-1.3,1-2.9,1.7-4.9
			c0.7-2,1.5-4.3,2.5-6.8"/>
		<path id="STROKE_ed54bbd7-70cf-44f4-8d72-db68a2553481" class="st7" d="M403.1,155.5c1.2,2.7,2.1,4.8,2.7,6.3
			c0.6,1.4,1.4,3.6,2.5,6.4c1,2.8,1.8,4.9,2.2,6.3c0.4,1.4,0.8,2.5,0.9,3.2c0.2,0.7,0.4,1.6,0.7,2.6c0.3,1.1,0.5,2.4,0.9,4.1
			c0.3,1.7,0.5,3,0.7,4c0.1,1,0.3,2.6,0.4,4.9c0.1,2.3,0.2,3.8,0.2,4.4c0,0.6-0.1,2-0.2,4.2c-0.1,2.2-0.3,4.1-0.5,5.9
			c-0.2,1.8-0.6,3.8-1,6.2c-0.4,2.3-1,4.8-1.7,7.5c-0.7,2.7-1.3,4.8-1.8,6.4c-0.5,1.6-1,3.1-1.4,4.3c-0.4,1.3-1,2.9-1.7,4.9
			c-0.7,2-1.5,4.3-2.5,6.8"/>
		<path id="STROKE_7b52057b-ce50-4fb7-ba24-90dff39a61db" class="st7" d="M393.6,492.9c-1.2-2.7-2.1-4.8-2.7-6.3
			c-0.6-1.4-1.4-3.6-2.5-6.4c-1-2.8-1.8-4.9-2.2-6.3c-0.4-1.4-0.8-2.5-0.9-3.2c-0.2-0.7-0.4-1.6-0.7-2.6c-0.3-1.1-0.5-2.4-0.9-4.1
			c-0.3-1.7-0.5-3-0.7-4c-0.1-1-0.2-2.6-0.4-4.9c-0.1-2.3-0.2-3.8-0.2-4.4s0.1-2,0.2-4.2c0.1-2.2,0.3-4.1,0.5-5.9
			c0.2-1.8,0.6-3.8,1-6.2c0.4-2.3,1-4.8,1.7-7.5c0.7-2.7,1.3-4.8,1.8-6.4c0.5-1.6,1-3.1,1.4-4.3c0.4-1.3,1-2.9,1.7-4.9
			c0.7-2,1.5-4.3,2.5-6.8"/>
		<path id="STROKE_19e60a10-0680-46b2-a3eb-243cbcd4180a" class="st7" d="M402,402.1c1.2,2.7,2.1,4.8,2.7,6.3
			c0.6,1.4,1.4,3.6,2.5,6.4c1,2.8,1.8,4.9,2.2,6.3c0.4,1.4,0.8,2.5,0.9,3.2c0.2,0.7,0.4,1.6,0.7,2.6c0.3,1.1,0.5,2.4,0.9,4.1
			c0.3,1.7,0.5,3,0.7,4c0.1,1,0.3,2.6,0.4,4.9c0.1,2.3,0.2,3.8,0.2,4.4c0,0.6-0.1,2-0.2,4.2c-0.1,2.2-0.3,4.1-0.5,5.9
			c-0.2,1.8-0.6,3.8-1,6.2c-0.4,2.3-1,4.8-1.7,7.5c-0.7,2.7-1.3,4.8-1.8,6.4c-0.5,1.6-1,3.1-1.4,4.3c-0.4,1.3-1,2.9-1.7,4.9
			c-0.7,2-1.5,4.3-2.5,6.8"/>
		<path id="STROKE_74ae1bb9-8d56-4a9d-9c92-25f851ad0b2e" class="st7" d="M388.3,269.9c-0.5,0.5-1.3,1.4-2.5,2.5
			c-1.1,1.1-1.9,1.9-2.3,2.4c-0.4,0.4-1,1.1-1.9,2c-0.8,0.9-1.8,1.9-2.9,3.1c-1.1,1.2-2.1,2.3-3.1,3.4c-0.9,1.1-2,2.3-3.1,3.6
			c-1.1,1.3-2.1,2.5-2.9,3.5c-0.8,1-1.5,1.9-2.2,2.8c-0.7,0.9-1.5,2-2.5,3.2c-1,1.3-1.8,2.5-2.6,3.6c-0.8,1.1-1.5,2.1-2.1,3
			c-0.6,0.9-1.3,1.8-2,2.9c-0.7,1-1.4,2-2,2.9c-0.6,0.9-1.4,2.2-2.5,3.9c-1.1,1.7-2.1,3.5-3.2,5.3c-1,1.8-1.8,3-2.1,3.8
			c-0.4,0.7-0.7,1.4-1.1,2c-0.3,0.6-0.7,1.3-1.1,2.1c-0.4,0.8-0.8,1.6-1.2,2.4c-0.4,0.8-0.8,1.7-1.3,2.8c-0.5,1-0.9,2-1.2,2.8
			c-0.3,0.8-0.7,1.6-1,2.5c-0.3,0.9-0.7,1.7-1,2.5c-0.3,0.8-0.7,1.8-1.1,3c-0.4,1.2-0.9,2.7-1.4,4.5c-0.5,1.8-1,3.4-1.3,4.9
			s-0.6,2.7-0.9,3.7c-0.2,1-0.4,2.2-0.7,3.5c-0.2,1.3-0.5,2.7-0.7,4.2c-0.2,1.5-0.4,2.9-0.5,4c-0.1,1.1-0.2,2.3-0.3,3.4
			c-0.1,1.2-0.1,2.1-0.2,2.8c0,0.7-0.1,1.5-0.1,2.4c0,0.9,0.1,3.1,0.2,6.8c0.2,3.7,0.3,6,0.4,7c0.1,1,0.2,1.9,0.3,2.7
			c0.1,0.8,0.2,1.7,0.3,2.7c0.1,1,0.2,1.9,0.4,2.7c0.1,0.8,0.3,2.1,0.7,4c0.3,1.9,0.7,3.9,1.2,6.1c0.5,2.2,0.9,3.9,1.1,5
			c0.3,1.1,0.7,2.5,1.2,4.3c0.5,1.8,1.1,3.7,1.7,5.6c0.6,2,1.3,3.8,2,5.6c0.7,1.8,1.2,3.1,1.4,3.8c0.3,0.7,0.7,1.7,1.3,3.1
			c0.6,1.4,1.1,2.6,1.6,3.7c0.5,1.1,1.1,2.4,1.9,4c0.8,1.6,1.4,2.9,2,4c0.6,1.1,1.1,2,1.5,2.8c0.4,0.8,1.2,2,2.2,3.8
			c1.1,1.8,1.9,3.1,2.5,4.1c0.6,1,1.4,2.1,2.3,3.4c0.9,1.3,1.5,2.1,1.9,2.7c0.4,0.5,0.8,1.1,1.4,1.8c0.5,0.7,1.3,1.7,2.5,3.1
			c1.1,1.4,2.1,2.6,3,3.6c0.9,1,1.7,1.9,2.4,2.7c0.7,0.8,1.3,1.4,1.8,2c0.5,0.5,1,1,1.5,1.5c0.5,0.5,1.1,1.1,1.8,1.9
			c0.7,0.8,3.5,3.4,8.2,7.9"/>
		<path id="STROKE_e7151a8a-3841-4abe-a8b4-bd38082148db" class="st7" d="M407.3,149.8c0.5,0.2,2,1,4.5,2.4c2.5,1.3,6.1,3.3,10.9,6
			c4.8,2.7,8.4,4.8,10.9,6.4c2.5,1.6,6.3,4.2,11.4,7.8c5.1,3.6,8.5,6.2,10.3,7.6c1.8,1.5,4.1,3.5,6.9,6c2.8,2.5,5.4,5.1,7.9,7.7
			c2.5,2.6,4.5,4.8,6.1,6.7c1.6,1.9,2.8,3.5,3.7,4.7c0.9,1.2,2.5,3.6,4.7,7.2c2.2,3.6,3.9,6.4,4.9,8.4c1,2,1.8,3.8,2.4,5.2
			c0.6,1.5,1.2,3,1.8,4.6c0.6,1.6,1.2,3.2,1.6,4.7c0.5,1.5,1,3.3,1.6,5.4c0.6,2.1,0.9,3.6,1.1,4.6c0.2,0.9,0.5,2.5,0.9,4.6
			c0.4,2.1,0.7,4.2,0.9,6.3c0.3,2.1,0.4,3.9,0.5,5.4c0.1,1.5,0.2,3.7,0.2,6.6c0,2.9,0,5.5-0.1,7.8c-0.1,2.3-0.3,4.1-0.4,5.3
			c-0.1,1.2-0.3,2.8-0.6,4.8c-0.3,1.9-0.7,3.9-1.1,5.8c-0.4,1.9-0.9,3.9-1.5,5.8c-0.6,2-1.1,3.6-1.6,5c-0.5,1.4-1,2.7-1.5,4
			c-0.5,1.3-1.4,3.2-2.7,5.9c-1.3,2.7-2.4,4.8-3.2,6.2c-0.8,1.4-1.8,3.1-3,4.9c-1.2,1.8-2.5,3.7-3.9,5.5c-1.4,1.8-2.7,3.5-4,5
			c-1.3,1.5-3,3.3-5.1,5.5c-2.2,2.2-3.8,3.8-5.1,4.9c-1.2,1.1-2.7,2.3-4.5,3.8c-1.7,1.4-3.1,2.4-4,3.1c-0.9,0.7-2.2,1.6-3.9,2.8
			c-1.7,1.2-3.3,2.2-4.9,3.2c-1.5,0.9-5.4,3-11.6,6.2c-6.2,3.2-10.3,5.2-12.1,5.9c-1.8,0.8-3.7,1.5-5.7,2.2s-3.5,1.3-4.6,1.7
			c-1.2,0.4-2.9,1-5.3,1.8"/>
		<path id="STROKE_c4d88695-b676-43ca-acd0-0088fa13596f" class="st7" d="M411.9,148c2.3,0.8,5,1.8,8.2,3c3.2,1.2,5.5,2.1,7.1,2.7
			c1.5,0.6,2.9,1.2,4.1,1.7c1.2,0.5,2.8,1.2,4.8,2.1c2,0.9,4.3,2,6.9,3.2c2.6,1.3,4.7,2.3,6.4,3.2c1.7,0.9,3.9,2.1,6.8,3.8
			c2.9,1.7,5.4,3.2,7.6,4.6c2.2,1.4,5.3,3.7,9.4,6.7c4.1,3,6.8,5.1,8.1,6.2c1.3,1.1,2.5,2.1,3.6,3c1.1,0.9,2.4,2.2,4.1,3.7
			c1.7,1.5,3,2.8,4.1,3.8c1.1,1,2.2,2.1,3.3,3.3c1.2,1.2,2.3,2.3,3.3,3.4c1,1.1,2.1,2.2,3.1,3.4c1.1,1.2,2.5,2.9,4.4,5.1
			c1.9,2.2,3.5,4.2,4.9,6c1.4,1.7,2.7,3.4,3.9,5.1c1.2,1.6,3,4.2,5.4,7.8c2.4,3.6,4.7,7.2,6.9,10.9c2.2,3.7,3.8,6.7,5,8.9
			c1.2,2.2,2.2,4.4,3.2,6.5c1,2.1,2,4.5,3.1,7.1c1.1,2.6,1.9,4.6,2.3,5.8c0.5,1.2,1.3,4,2.7,8.3c1.3,4.3,2.1,6.9,2.3,7.9
			c0.2,1,0.5,2,0.7,3.1c0.2,1.1,0.5,2.2,0.7,3.4c0.2,1.2,0.5,2.5,0.7,4c0.3,1.5,0.6,4.9,1.1,10c0.5,5.1,0.8,8.6,0.8,10.3
			c0,1.8,0,3.7,0,5.8c0,2.1-0.1,3.9-0.2,5.6c-0.1,1.6-0.2,3.6-0.5,5.8c-0.2,2.2-0.6,5.1-1.1,8.6c-0.5,3.5-1.3,7.6-2.3,12.5
			c-1.1,4.9-2.2,9.5-3.4,13.8c-1.2,4.3-2.4,8.1-3.5,11.3c-1.1,3.2-2,5.6-2.6,7.1c-0.6,1.6-1.4,3.5-2.4,5.7c-1,2.2-1.7,3.9-2.2,4.9
			c-0.5,1-1.3,2.7-2.5,4.9c-1.2,2.2-2,3.8-2.5,4.7s-1.2,2.2-2.2,3.8c-1,1.6-2.1,3.4-3.3,5.2c-1.2,1.9-2.2,3.4-3.1,4.5
			c-0.8,1.2-1.8,2.5-3,4.1c-1.2,1.5-3.6,4.5-7.4,8.8c-3.7,4.3-8.4,9.2-14.1,14.6c-5.6,5.4-9,8.5-10.1,9.4c-1.1,0.9-3,2.4-5.7,4.5
			c-2.7,2.1-4.7,3.5-5.8,4.3c-1.1,0.8-2.5,1.7-4.1,2.8c-1.6,1.1-3,2-4.3,2.8c-1.3,0.8-2.8,1.7-4.5,2.7c-1.7,1-3.5,2-5.3,3
			c-1.8,1-3.7,1.9-5.5,2.8c-1.8,0.9-3.6,1.8-5.5,2.6c-1.8,0.8-3.7,1.6-5.4,2.3c-1.8,0.7-3.4,1.4-4.9,1.9c-1.5,0.6-7.7,2.7-18.6,6.4
			l-2.7,0.9"/>
		<path id="STROKE_ec9864d6-0f4e-4f50-bbaf-8d7e1bf4631c" class="st7" d="M406.8,374.1c0.5-0.5,1.3-1.4,2.5-2.5
			c1.1-1.1,1.9-1.9,2.3-2.4c0.4-0.4,1-1.1,1.9-1.9c0.8-0.9,1.8-1.9,2.9-3.1c1.1-1.2,2.1-2.3,3.1-3.4c0.9-1.1,2-2.3,3.1-3.6
			c1.1-1.3,2.1-2.5,2.9-3.5c0.8-1,1.6-1.9,2.2-2.8c0.7-0.9,1.5-2,2.5-3.2s1.8-2.5,2.6-3.6c0.8-1.1,1.5-2.1,2.1-3
			c0.6-0.9,1.3-1.8,2-2.9c0.7-1,1.4-2,2-2.9c0.6-0.9,1.4-2.2,2.5-3.9c1.1-1.7,2.1-3.5,3.2-5.3c1-1.8,1.8-3,2.1-3.8
			c0.4-0.7,0.7-1.4,1.1-2c0.3-0.6,0.7-1.3,1.1-2.1c0.4-0.8,0.8-1.6,1.2-2.4c0.4-0.8,0.8-1.7,1.3-2.8c0.5-1,0.9-2,1.2-2.8
			c0.3-0.8,0.7-1.6,1-2.5c0.3-0.9,0.7-1.7,1-2.5c0.3-0.8,0.7-1.8,1.1-3c0.4-1.2,0.9-2.7,1.4-4.5c0.5-1.8,1-3.4,1.3-4.9
			c0.4-1.4,0.6-2.7,0.9-3.7c0.2-1,0.4-2.2,0.7-3.5c0.2-1.3,0.5-2.7,0.7-4.2c0.2-1.5,0.4-2.9,0.5-4c0.1-1.1,0.2-2.3,0.3-3.4
			c0.1-1.2,0.1-2.1,0.2-2.8c0-0.7,0-1.5,0.1-2.4c0-0.9-0.1-3.1-0.2-6.8c-0.2-3.7-0.3-6-0.4-7c-0.1-1-0.2-1.9-0.3-2.7
			s-0.2-1.7-0.3-2.7c-0.1-1-0.2-1.9-0.4-2.7c-0.1-0.8-0.3-2.1-0.7-4c-0.3-1.9-0.7-3.9-1.2-6.1c-0.5-2.2-0.9-3.9-1.1-5
			c-0.3-1.1-0.7-2.5-1.2-4.3c-0.5-1.8-1.1-3.7-1.7-5.6c-0.6-2-1.3-3.8-2-5.6c-0.7-1.8-1.2-3.1-1.4-3.8c-0.3-0.7-0.7-1.7-1.3-3.1
			c-0.6-1.4-1.1-2.6-1.6-3.7c-0.5-1.1-1.1-2.4-1.9-4c-0.8-1.6-1.4-2.9-2-4c-0.6-1.1-1.1-2-1.5-2.8c-0.4-0.8-1.2-2-2.2-3.8
			c-1.1-1.8-1.9-3.1-2.5-4.1c-0.6-1-1.4-2.1-2.3-3.4c-0.9-1.3-1.5-2.1-1.9-2.7c-0.4-0.5-0.8-1.1-1.4-1.8c-0.5-0.7-1.3-1.7-2.5-3.1
			s-2.1-2.6-3-3.6c-0.9-1-1.7-1.9-2.4-2.7c-0.7-0.8-1.3-1.4-1.8-2c-0.5-0.5-1-1-1.5-1.5c-0.5-0.5-1.1-1.1-1.8-1.9
			c-0.7-0.8-3.5-3.4-8.2-7.9"/>
		<path id="STROKE_2d10d5c2-4b33-480a-98c6-0551edc94366" class="st7" d="M397.2,364.9c1.7,3.9,2.7,5.9,2.7,6.1
			c0.1,0.2,0.6,1.3,1.5,3.5"/>
		<path id="STROKE_f3adfe0a-72d2-4271-83c3-b3620a31b9fd" class="st7" d="M402.4,373.9c0.6-0.6,0.9-1,1-1.2c0.1-0.1,0.5-0.6,1.1-1.4
			c0.7-0.8,1.6-1.9,2.9-3.5l1.1-1.3"/>
		<path id="STROKE_4613bb6a-ad8b-45ed-8e71-c3268fde43ef" class="st7" d="M397.2,364.9c0.1,0.2,0.2,0.5,0.3,0.7
			c0.1,0.2,0.2,0.5,0.3,0.7c0.1,0.2,0.2,0.4,0.3,0.6c0.1,0.2,0.2,0.4,0.3,0.7c0.1,0.3,0.3,0.6,0.4,0.9c0.1,0.3,0.3,0.6,0.4,0.9
			c0.1,0.3,0.2,0.5,0.3,0.7c0.1,0.2,0.2,0.4,0.3,0.6c0.1,0.2,0.2,0.3,0.2,0.4c0,0,0.1,0.2,0.2,0.3c0.1,0.2,0.2,0.4,0.3,0.7
			c0.1,0.3,0.3,0.7,0.5,1.1c0.2,0.4,0.4,0.9,0.7,1.5"/>
		<path id="STROKE_33db4c9c-177d-441a-8206-f5245b4b735a" class="st7" d="M414.2,368.8c-1.9,3.3-2.8,5-2.9,5.2
			c-0.1,0.2-0.6,1.1-1.7,2.9"/>
		<path id="STROKE_5bf11466-1f03-4410-b35f-47fba4881e81" class="st7" d="M410.4,377.2c0.8,0.1,1.2,0.1,1.3,0.1c0.1,0,0.7,0,1.6,0.1
			s2.3,0.1,4,0.2l1.5,0.1"/>
		<path id="STROKE_ebeaf2ca-8b21-451b-9638-cbe0a8a9acb9" class="st7" d="M414.2,368.8c-0.1,0.2-0.2,0.4-0.3,0.6
			c-0.1,0.2-0.2,0.4-0.3,0.6c-0.1,0.2-0.2,0.4-0.3,0.5c-0.1,0.2-0.2,0.4-0.3,0.6c-0.1,0.2-0.3,0.5-0.4,0.8c-0.1,0.3-0.3,0.5-0.4,0.7
			c-0.1,0.2-0.2,0.4-0.3,0.6c-0.1,0.2-0.2,0.3-0.3,0.5c-0.1,0.2-0.2,0.3-0.2,0.3c0,0-0.1,0.1-0.2,0.3c-0.1,0.1-0.2,0.3-0.3,0.6
			c-0.1,0.3-0.3,0.6-0.5,0.9c-0.2,0.4-0.4,0.8-0.7,1.3"/>
		<path id="STROKE_601375f3-433b-4d4f-b136-6018c0bd2f8b" class="st7" d="M414.6,487.9c-1.5,3.2-2.3,4.9-2.3,5
			c-0.1,0.2-0.5,1.1-1.3,2.8"/>
		<path id="STROKE_0135a89a-4315-4bed-9d22-8fe61df66408" class="st7" d="M411.8,495.9c0.7,0,1.1,0,1.3,0c0.1,0,0.6,0,1.5,0
			c0.8,0,2.1,0,3.7-0.1l1.4,0"/>
		<path id="STROKE_86e6ec00-06e5-4d44-a37e-5657c7c65de8" class="st7" d="M414.6,487.9c-0.1,0.2-0.2,0.4-0.3,0.6
			c-0.1,0.2-0.2,0.4-0.3,0.5c-0.1,0.2-0.2,0.3-0.2,0.5c-0.1,0.2-0.2,0.4-0.3,0.6c-0.1,0.2-0.2,0.5-0.3,0.7c-0.1,0.3-0.2,0.5-0.3,0.7
			c-0.1,0.2-0.2,0.4-0.3,0.6c-0.1,0.2-0.2,0.3-0.2,0.5c-0.1,0.2-0.1,0.3-0.1,0.3c0,0-0.1,0.1-0.1,0.3c-0.1,0.1-0.2,0.3-0.3,0.6
			c-0.1,0.2-0.2,0.5-0.4,0.9c-0.2,0.3-0.3,0.8-0.5,1.2"/>
		<path id="STROKE_06032edd-b009-4b0d-88a5-32fdc4069fda" class="st7" d="M378.5,488.1c3,1.1,4.6,1.6,4.8,1.7
			c0.2,0.1,1.1,0.4,2.7,0.9"/>
		<path id="STROKE_16b79f04-d699-4d31-a981-6d2523cb4227" class="st7" d="M386.1,490c-0.1-0.6-0.1-1-0.1-1.1c0-0.1-0.1-0.6-0.2-1.3
			c-0.1-0.8-0.2-1.9-0.4-3.4l-0.2-1.2"/>
		<path id="STROKE_7b6d3c85-0b41-49a2-b9e5-e44a756009d1" class="st7" d="M378.5,488.1c0.2,0.1,0.4,0.1,0.6,0.2
			c0.2,0.1,0.4,0.1,0.5,0.2c0.2,0.1,0.3,0.1,0.5,0.2c0.2,0.1,0.3,0.1,0.6,0.2c0.2,0.1,0.5,0.2,0.7,0.2c0.2,0.1,0.5,0.2,0.7,0.2
			c0.2,0.1,0.4,0.1,0.5,0.2c0.2,0.1,0.3,0.1,0.5,0.2c0.2,0.1,0.3,0.1,0.3,0.1c0,0,0.1,0,0.3,0.1c0.1,0,0.3,0.1,0.6,0.2
			c0.2,0.1,0.5,0.2,0.9,0.3c0.3,0.1,0.7,0.2,1.2,0.4"/>
		<path id="STROKE_491fc6b3-35ff-413f-830a-6354afa97286" class="st7" d="M399.8,484c0.9,3.3,1.4,5.1,1.5,5.2c0,0.2,0.3,1.1,0.8,3"
			/>
		<path id="STROKE_92340d36-d143-4800-ba15-3f71dbc29991" class="st7" d="M402.8,491.8c0.5-0.4,0.8-0.7,0.9-0.8
			c0.1-0.1,0.4-0.4,1.1-1c0.6-0.5,1.5-1.4,2.8-2.4l1-0.9"/>
		<path id="STROKE_6c6caf49-5666-4076-9403-79084d81d3d2" class="st7" d="M399.8,484c0.1,0.2,0.1,0.4,0.2,0.6
			c0.1,0.2,0.1,0.4,0.2,0.6c0.1,0.2,0.1,0.4,0.1,0.5c0,0.2,0.1,0.4,0.2,0.6c0.1,0.2,0.1,0.5,0.2,0.8c0.1,0.3,0.1,0.5,0.2,0.7
			c0.1,0.2,0.1,0.4,0.2,0.6c0,0.2,0.1,0.3,0.1,0.5c0.1,0.2,0.1,0.3,0.1,0.3c0,0,0,0.1,0.1,0.3c0,0.1,0.1,0.3,0.2,0.6
			c0.1,0.3,0.2,0.6,0.3,0.9c0.1,0.4,0.2,0.8,0.4,1.2"/>
		<path id="STROKE_8b650e66-8cf0-49e8-8ca9-a06aa6d10cf1" class="st7" d="M397.6,409c-1.9-3.4-2.8-5.2-2.9-5.4
			c-0.1-0.2-0.6-1.2-1.6-3.1"/>
		<path id="STROKE_1f5b0c74-8a0c-4453-a295-08bc3b2ebe4e" class="st7" d="M392.2,401.1c-0.6,0.6-1,0.9-1,1c-0.1,0.1-0.5,0.5-1.2,1.2
			c-0.7,0.7-1.7,1.7-3.1,3.1l-1.1,1.1"/>
		<path id="STROKE_b04ba709-70e4-4743-b342-b86cd7eeb6af" class="st7" d="M397.6,409c-0.1-0.2-0.2-0.4-0.3-0.6
			c-0.1-0.2-0.2-0.4-0.3-0.6c-0.1-0.2-0.2-0.4-0.3-0.5c-0.1-0.2-0.2-0.4-0.3-0.6c-0.1-0.2-0.3-0.5-0.4-0.8c-0.1-0.3-0.3-0.5-0.4-0.8
			c-0.1-0.2-0.2-0.4-0.3-0.6c-0.1-0.2-0.2-0.4-0.3-0.5c-0.1-0.2-0.2-0.3-0.2-0.3c0,0-0.1-0.1-0.2-0.3c-0.1-0.2-0.2-0.4-0.3-0.6
			c-0.1-0.3-0.3-0.6-0.5-1c-0.2-0.4-0.4-0.8-0.7-1.3"/>
		<path id="STROKE_2ffe9403-7609-4e00-8908-0c7d0a45730d" class="st7" d="M380.9,274.6c2.8-3.5,4.3-5.4,4.4-5.5
			c0.1-0.2,1-1.2,2.5-3.1"/>
		<path id="STROKE_0caa0f87-55ba-4a7e-b2b1-5798a1eb1cd9" class="st7" d="M386.9,265.5c-0.9-0.2-1.4-0.3-1.6-0.4
			c-0.2,0-0.8-0.1-1.8-0.4c-1.1-0.3-2.6-0.6-4.7-1.1l-1.7-0.4"/>
		<path id="STROKE_5ff288e3-486c-4826-962b-cc470253d38e" class="st7" d="M380.9,274.6c0.2-0.2,0.3-0.4,0.5-0.6
			c0.2-0.2,0.3-0.4,0.5-0.6c0.2-0.2,0.3-0.4,0.5-0.6c0.1-0.2,0.3-0.4,0.5-0.6c0.2-0.3,0.4-0.5,0.6-0.8c0.2-0.3,0.4-0.5,0.6-0.8
			c0.2-0.2,0.4-0.4,0.5-0.6c0.1-0.2,0.3-0.4,0.4-0.6c0.2-0.2,0.2-0.3,0.3-0.4c0,0,0.1-0.1,0.2-0.3c0.1-0.2,0.3-0.4,0.5-0.6
			c0.2-0.3,0.5-0.6,0.8-1c0.3-0.4,0.7-0.8,1-1.3"/>
		<path id="STROKE_2a10ff7e-0be8-43d2-a511-e8401e5fccae" class="st7" d="M397.6,278c-1.1-4-1.7-6.1-1.8-6.3c-0.1-0.2-0.4-1.4-1-3.5
			"/>
		<path id="STROKE_9126238a-1a68-49d6-85a6-346925ba389d" class="st7" d="M393.9,268.7c-0.6,0.5-1,0.9-1.1,1
			c-0.1,0.1-0.5,0.5-1.3,1.2s-1.8,1.6-3.3,2.9l-1.2,1.1"/>
		<path id="STROKE_b55abe9b-24ff-4be9-865b-cb70d970610d" class="st7" d="M397.6,278c-0.1-0.2-0.1-0.5-0.2-0.7
			c-0.1-0.2-0.1-0.5-0.2-0.7c-0.1-0.2-0.1-0.4-0.2-0.6c-0.1-0.2-0.1-0.4-0.2-0.7c-0.1-0.3-0.2-0.6-0.3-0.9c-0.1-0.3-0.2-0.6-0.3-0.9
			c-0.1-0.3-0.1-0.5-0.2-0.7c-0.1-0.2-0.1-0.4-0.2-0.6s-0.1-0.3-0.1-0.4c0-0.1,0-0.2-0.1-0.3c-0.1-0.2-0.1-0.4-0.2-0.7
			c-0.1-0.3-0.2-0.7-0.3-1.1c-0.1-0.4-0.3-0.9-0.4-1.5"/>
		<path id="STROKE_ad8ea768-e2cb-45d9-bbf5-a3514bcf935b" class="st7" d="M399.1,239.4c1.9,3.4,2.8,5.2,2.9,5.4
			c0.1,0.2,0.6,1.2,1.6,3.1"/>
		<path id="STROKE_0e8f7671-2c6e-4abb-8b48-0c60cbb51344" class="st7" d="M404.5,247.3c0.6-0.6,1-0.9,1-1c0.1-0.1,0.5-0.5,1.2-1.2
			c0.7-0.7,1.7-1.7,3.1-3.1l1.1-1.1"/>
		<path id="STROKE_1752a29f-3cfe-4a28-820f-f2433c581ecc" class="st7" d="M399.1,239.4c0.1,0.2,0.2,0.4,0.3,0.6
			c0.1,0.2,0.2,0.4,0.3,0.6c0.1,0.2,0.2,0.4,0.3,0.5c0.1,0.2,0.2,0.4,0.3,0.6c0.1,0.2,0.3,0.5,0.4,0.8c0.2,0.3,0.3,0.5,0.4,0.8
			s0.2,0.4,0.3,0.6c0.1,0.2,0.2,0.4,0.3,0.5c0.1,0.2,0.2,0.3,0.2,0.3c0,0,0.1,0.1,0.2,0.3c0.1,0.2,0.2,0.4,0.3,0.6
			c0.1,0.3,0.3,0.6,0.5,1c0.2,0.4,0.4,0.8,0.7,1.3"/>
		<path id="STROKE_0d766f4a-1732-4688-8182-04af39dd7401" class="st7" d="M385.2,157.4c1.6-4,2.4-6,2.5-6.2c0.1-0.2,0.5-1.4,1.4-3.5
			"/>
		<path id="STROKE_b8e69f06-9b12-4464-b3e5-778659fbf534" class="st7" d="M388.1,147.5c-0.9,0-1.4,0.1-1.5,0.1
			c-0.2,0-0.7,0.1-1.8,0.1c-1,0.1-2.5,0.2-4.5,0.3l-1.7,0.1"/>
		<path id="STROKE_c849fddb-2336-40b8-b746-957df1aae249" class="st7" d="M385.2,157.4c0.1-0.2,0.2-0.5,0.3-0.7
			c0.1-0.2,0.2-0.5,0.3-0.7c0.1-0.2,0.2-0.4,0.3-0.6c0.1-0.2,0.2-0.4,0.3-0.7c0.1-0.3,0.2-0.6,0.4-0.9c0.1-0.3,0.2-0.6,0.3-0.9
			c0.1-0.3,0.2-0.5,0.3-0.7c0.1-0.2,0.2-0.4,0.2-0.6c0.1-0.2,0.1-0.4,0.2-0.4c0,0,0.1-0.2,0.1-0.3c0.1-0.2,0.2-0.4,0.3-0.7
			c0.1-0.3,0.3-0.7,0.4-1.1c0.2-0.4,0.4-0.9,0.6-1.5"/>
		<path id="STROKE_0d0d1bfd-4cc2-4b58-88a2-4294b14b75f1" class="st7" d="M389,147.5c-1.1,0-1.7,0.1-1.9,0.1c-0.1,0-0.3,0-0.6,0.1
			c-0.3,0-0.5,0-0.8,0.1c-0.2,0-0.5,0-0.8,0.1s-0.6,0-1,0.1c-0.3,0-0.7,0-1.1,0.1c-0.4,0-0.8,0.1-1.3,0.1c-0.4,0-0.9,0.1-1.4,0.1
			l-1.7,0.1"/>
		<path id="STROKE_05972782-6982-4ecf-b6f8-6c8e1269d024" class="st7" d="M398.8,162.4c-1.9-3.4-2.8-5.2-2.9-5.4
			c-0.1-0.2-0.6-1.2-1.6-3.1"/>
		<path id="STROKE_bd8dfedf-2a47-427c-ae6b-7a8b5be32465" class="st7" d="M393.3,154.5c-0.6,0.6-1,0.9-1,1c-0.1,0.1-0.5,0.5-1.2,1.2
			c-0.7,0.7-1.7,1.7-3.1,3.1l-1.1,1.1"/>
		<path id="STROKE_b01fcd43-d4c2-4482-8807-a7db226c2c83" class="st7" d="M398.8,162.4c-0.1-0.2-0.2-0.4-0.3-0.6
			c-0.1-0.2-0.2-0.4-0.3-0.6c-0.1-0.2-0.2-0.4-0.3-0.5c-0.1-0.2-0.2-0.4-0.3-0.6c-0.1-0.2-0.3-0.5-0.4-0.8c-0.1-0.3-0.3-0.5-0.4-0.8
			c-0.1-0.2-0.2-0.4-0.3-0.6c-0.1-0.2-0.2-0.4-0.3-0.5c-0.1-0.2-0.2-0.3-0.2-0.3c0,0-0.1-0.1-0.2-0.3c-0.1-0.2-0.2-0.4-0.3-0.6
			c-0.1-0.3-0.3-0.6-0.5-1c-0.2-0.4-0.4-0.8-0.7-1.3"/>
		<path id="STROKE_02258564-c001-470a-b541-925484a50c6f" class="st7" d="M419.4,158.3c-3.5-1.2-5.4-1.8-5.6-1.8
			c-0.2-0.1-1.2-0.4-3.1-1"/>
		<path id="STROKE_f1520e1d-d7e6-4807-be6f-5c242e0c7fde" class="st7" d="M410.6,156.3c0.1,0.7,0.1,1.2,0.2,1.3
			c0,0.1,0.1,0.6,0.2,1.5c0.1,0.9,0.3,2.2,0.5,3.9l0.2,1.4"/>
		<path id="STROKE_e3eb9b6a-e823-46c6-a450-a9809c9c1e45" class="st7" d="M419.4,158.3c-0.2-0.1-0.4-0.1-0.6-0.2
			c-0.2-0.1-0.4-0.1-0.6-0.2s-0.4-0.1-0.6-0.2c-0.2-0.1-0.4-0.1-0.7-0.2c-0.3-0.1-0.5-0.2-0.8-0.3c-0.3-0.1-0.5-0.2-0.8-0.3
			c-0.2-0.1-0.4-0.1-0.6-0.2c-0.2-0.1-0.4-0.1-0.6-0.2c-0.2-0.1-0.3-0.1-0.4-0.1c0,0-0.1,0-0.3-0.1c-0.2,0-0.4-0.1-0.6-0.2
			c-0.3-0.1-0.6-0.2-1-0.3c-0.4-0.1-0.8-0.3-1.3-0.4"/>
	</g>
	<path id="STROKE_3f7cf983-58d1-4718-99d3-2dc8e93575b6" class="st8" d="M177.6,301.4c0.5-1.8,0.9-3,1-3.5c0.2-0.5,0.3-1.1,0.6-1.7
		c0.2-0.7,0.5-1.6,0.9-2.6c0.4-1.1,0.7-2.1,1.1-3.1c0.4-1,0.7-1.9,1.1-2.8c0.3-0.9,0.7-1.7,1-2.6c0.4-0.9,0.7-1.7,1.1-2.5
		c0.4-0.8,0.8-1.8,1.2-2.8c0.5-1.1,0.9-2,1.3-2.8c0.4-0.8,0.8-1.8,1.2-2.7c0.4-1,0.9-1.9,1.2-2.7c0.4-0.8,0.8-1.7,1.2-2.7
		c0.5-1,0.8-1.8,1.1-2.4c0.3-0.6,0.7-1.5,1.3-2.7c0.6-1.1,1.2-2.5,2.1-4.1c0.8-1.6,1.5-3.1,2.2-4.3c0.7-1.3,1.3-2.4,1.8-3.3
		c0.5-0.9,1-1.8,1.6-2.7c0.5-0.9,1.1-1.8,1.6-2.6c0.5-0.9,1-1.6,1.5-2.3c0.4-0.7,0.9-1.3,1.3-2c0.4-0.7,1.1-1.5,1.8-2.6
		s1.6-2.1,2.4-3.2c0.8-1.1,1.6-2.1,2.2-2.9c0.7-0.9,1.4-1.8,2.2-2.8c0.8-1,1.5-1.9,2.1-2.7c0.6-0.8,1.2-1.5,1.7-2.2
		c0.5-0.6,1-1.4,1.7-2.2c0.6-0.8,1.3-1.8,2.1-2.8c0.8-1.1,1.4-2,2-2.7c0.6-0.8,1.2-1.6,1.7-2.3c0.6-0.8,1.2-1.6,1.8-2.4
		c0.6-0.8,1.3-1.7,2.1-2.5c0.7-0.9,1.4-1.6,2-2.3c0.6-0.7,1.1-1.2,1.5-1.7c0.4-0.5,0.9-0.9,1.4-1.5c0.5-0.5,1.1-1.1,1.9-1.9
		c0.7-0.7,1.5-1.4,2.2-2.1c0.7-0.7,1.6-1.5,2.6-2.4c1-0.9,1.8-1.6,2.3-2c0.5-0.4,1-0.9,1.5-1.3c0.6-0.5,1.2-1.1,2-1.7
		c0.8-0.7,1.5-1.3,2.2-1.9c0.7-0.6,1.4-1.2,2-1.7c0.6-0.5,1.3-1.1,2-1.7c0.7-0.6,1.4-1.2,2.1-1.8c0.7-0.6,1.4-1.2,2.1-1.8
		c0.7-0.6,1.4-1.2,2.3-1.9c0.9-0.7,1.5-1.3,2-1.7c0.5-0.4,1-0.8,1.6-1.3c0.6-0.4,1.3-1,2.1-1.6c0.8-0.6,1.6-1.2,2.3-1.7
		c0.7-0.5,1.4-1,2-1.5c0.6-0.4,1.4-1,2.4-1.7c1-0.7,2.2-1.5,3.6-2.5c1.4-1,2.6-1.8,3.7-2.5c1.1-0.7,1.9-1.3,2.6-1.7
		c0.7-0.4,1.5-0.9,2.4-1.5c0.9-0.5,1.8-1.1,2.8-1.7c1-0.6,1.9-1.1,2.6-1.5c0.7-0.4,1.3-0.8,1.9-1.1c0.6-0.3,1.5-0.8,2.7-1.4
		c1.2-0.6,2.3-1.2,3.3-1.7c1-0.5,2.1-1,3.2-1.5c1.2-0.5,2.2-1,3.2-1.5c1-0.4,2-0.9,3.2-1.4c1.2-0.5,2.3-0.9,3.5-1.3
		c1.2-0.4,2.3-0.8,3.3-1.1c1-0.3,2.1-0.7,3.4-1c1.2-0.4,2.4-0.7,3.6-1c1.2-0.3,2.3-0.6,3.4-0.9c1.1-0.3,2.1-0.5,3-0.7
		c0.9-0.2,1.9-0.4,2.9-0.6c1.1-0.2,2-0.4,2.9-0.6c0.9-0.2,1.8-0.3,2.8-0.5c1-0.2,1.9-0.3,2.9-0.5c1-0.2,1.8-0.3,2.6-0.5
		c0.8-0.1,1.7-0.3,2.7-0.5c1-0.2,1.9-0.3,2.8-0.5c0.9-0.2,2-0.3,3.3-0.6c1.3-0.2,2.6-0.5,4.1-0.7c1.5-0.3,2.7-0.5,3.8-0.6
		c1.1-0.2,2-0.3,2.7-0.4s1.6-0.2,2.7-0.4c1.1-0.1,2.3-0.3,3.8-0.4c1.5-0.1,2.6-0.2,3.6-0.3c0.9-0.1,1.7-0.1,2.4-0.1
		c0.6,0,1.4,0,2.3,0c0.9,0,2.5,0.1,4.7,0.2"/>
	<path id="STROKE_bcf6864d-3039-4983-bdb4-1c6bf14188c7" class="st8" d="M185.7,311c1.1-0.8,2.5-1.9,4.4-3.3
		c1.9-1.4,3.5-2.5,4.8-3.4c1.3-0.9,4-2.6,8-5.1c4-2.5,6.8-4.2,8.3-5.1c1.5-0.9,3.2-1.8,5-2.8c1.8-1,3.2-1.7,4.2-2.2
		c1-0.5,2.3-1.1,3.9-1.9c1.6-0.7,5.1-2.2,10.4-4.4c5.3-2.2,8.6-3.6,9.8-4.1c1.2-0.5,3.4-1.4,6.7-2.6c3.3-1.3,6.1-2.3,8.5-3.2
		c2.4-0.9,4.7-1.7,7.1-2.4c2.3-0.8,4.2-1.3,5.5-1.7c1.3-0.4,2.9-0.8,4.6-1.3c1.7-0.5,4.4-1.2,8-2.1c3.6-0.9,6.5-1.7,8.8-2.2
		c2.3-0.5,4.2-1,5.8-1.3c1.6-0.3,3.3-0.7,5.1-1c1.9-0.3,3.5-0.6,4.9-0.9c1.4-0.2,3.5-0.5,6.2-0.9c2.7-0.4,6.4-0.8,11-1.4
		c4.6-0.5,8.1-0.9,10.5-1.1c2.3-0.2,4.2-0.3,5.5-0.3c1.3-0.1,4-0.1,7.9-0.1c3.9,0,7.4,0.1,10.4,0.2c3.1,0.1,5.6,0.3,7.8,0.4
		c2.1,0.1,3.6,0.2,4.5,0.2c0.9,0,2.1,0,3.6,0.1"/>
	<path id="STROKE_368f3526-9bdb-4b7e-b030-08e5ba0e55b5" class="st8" d="M375,263.5c4.3-2.8,6.5-4.2,6.7-4.4c0.2-0.1,1.5-1,3.8-2.5"
		/>
	<path id="STROKE_00dc95af-da2f-4561-ae36-9e425400fedc" class="st8" d="M384.7,255.8c-0.9-0.6-1.4-0.9-1.6-0.9
		c-0.2-0.1-0.8-0.4-1.8-1.1c-1-0.6-2.6-1.6-4.7-2.8l-1.7-1"/>
	<path id="STROKE_a7995ced-8b76-4cfd-b4cd-a9ff0d2a6bdb" class="st8" d="M375,263.5c0.3-0.2,0.5-0.3,0.8-0.5
		c0.3-0.2,0.5-0.3,0.7-0.5c0.2-0.2,0.5-0.3,0.7-0.4c0.2-0.1,0.5-0.3,0.8-0.5c0.3-0.2,0.6-0.4,1-0.6c0.3-0.2,0.7-0.4,0.9-0.6
		c0.3-0.2,0.5-0.3,0.8-0.5c0.2-0.1,0.4-0.3,0.7-0.4c0.2-0.2,0.4-0.2,0.4-0.3c0.1,0,0.2-0.1,0.4-0.2c0.2-0.1,0.4-0.3,0.8-0.5
		c0.3-0.2,0.7-0.5,1.2-0.8c0.5-0.3,1-0.7,1.6-1.1"/>
	<path id="STROKE_1315e6bb-b137-4641-8f04-a7beb15e3b52" class="st8" d="M385.7,256.5c-1.1-0.7-1.7-1.1-1.9-1.2
		c-0.2-0.1-0.4-0.2-0.6-0.4c-0.3-0.2-0.5-0.3-0.8-0.5s-0.5-0.3-0.8-0.5s-0.6-0.4-1-0.6c-0.4-0.2-0.7-0.4-1.1-0.7
		c-0.4-0.2-0.8-0.5-1.3-0.8c-0.5-0.3-1-0.6-1.5-0.9l-1.7-1"/>
	<path id="STROKE_2331dd8d-9d56-4c30-8b0b-d481159f4865" class="st8" d="M376.7,147.4c4.3-2.8,6.5-4.2,6.7-4.4
		c0.2-0.1,1.5-1,3.8-2.5"/>
	<path id="STROKE_0509e6a3-1fd7-4587-bdf8-424516c386fa" class="st8" d="M386.3,139.7c-0.9-0.6-1.4-0.9-1.6-0.9
		c-0.2-0.1-0.8-0.4-1.8-1.1c-1-0.6-2.6-1.6-4.7-2.8l-1.7-1"/>
	<path id="STROKE_e8d52377-dc46-4dc6-9995-504149ab5c60" class="st8" d="M376.7,147.4c0.3-0.2,0.5-0.3,0.8-0.5
		c0.3-0.2,0.5-0.3,0.7-0.5c0.2-0.2,0.5-0.3,0.7-0.4c0.2-0.1,0.5-0.3,0.8-0.5c0.3-0.2,0.6-0.4,1-0.6c0.3-0.2,0.7-0.4,0.9-0.6
		s0.5-0.3,0.8-0.5c0.2-0.1,0.4-0.3,0.7-0.4c0.2-0.2,0.4-0.2,0.4-0.3c0.1,0,0.2-0.1,0.4-0.2c0.2-0.1,0.4-0.3,0.8-0.5
		c0.3-0.2,0.7-0.5,1.2-0.8c0.5-0.3,1-0.7,1.6-1.1"/>
	<path id="STROKE_814f9e70-a2d2-4473-92cc-5c1d9dc338b6" class="st8" d="M387.3,140.4c-1.1-0.7-1.7-1.1-1.9-1.2
		c-0.2-0.1-0.4-0.2-0.6-0.4c-0.3-0.2-0.5-0.3-0.8-0.5c-0.2-0.1-0.5-0.3-0.8-0.5c-0.3-0.2-0.6-0.4-1-0.6c-0.4-0.2-0.7-0.4-1.1-0.7
		c-0.4-0.2-0.8-0.5-1.3-0.8c-0.5-0.3-1-0.6-1.5-0.9l-1.7-1"/>
	<path id="STROKE_120ba827-51aa-4ba6-a0af-a86ed6b18c9e" class="st8" d="M175.6,341.6c0.5,1.8,0.9,3,1,3.5c0.2,0.5,0.3,1.1,0.6,1.7
		c0.2,0.7,0.5,1.6,0.9,2.6c0.4,1.1,0.7,2.1,1.1,3.1c0.4,1,0.7,1.9,1.1,2.8c0.3,0.9,0.7,1.7,1,2.6c0.4,0.9,0.7,1.6,0.9,2.2
		c0.3,0.6,0.5,1.2,0.8,1.8c0.2,0.6,0.5,1.2,0.8,1.9c0.3,0.7,0.7,1.5,1,2.3c0.4,0.8,0.8,1.8,1.2,2.7c0.4,1,0.9,1.9,1.2,2.7
		c0.4,0.8,0.7,1.6,1,2.2c0.3,0.7,0.6,1.2,0.8,1.7c0.2,0.5,0.5,1,0.7,1.5c0.2,0.5,0.6,1.1,1,2c0.4,0.8,0.8,1.6,1.1,2.3
		c0.3,0.7,0.7,1.4,1.1,2.2c0.4,0.8,0.8,1.6,1.2,2.3c0.4,0.7,0.7,1.4,1.1,2c0.3,0.6,0.6,1.2,0.9,1.8c0.3,0.5,0.6,1.2,1,1.9
		c0.4,0.7,0.9,1.5,1.4,2.4c0.5,0.9,1.1,1.8,1.6,2.6c0.5,0.9,1,1.6,1.5,2.3c0.4,0.7,0.8,1.2,1.1,1.6c0.3,0.4,0.6,0.9,1,1.4
		c0.3,0.5,0.7,1,1.1,1.5c0.4,0.5,0.8,1.1,1.3,1.7c0.5,0.6,1,1.3,1.5,2c0.6,0.7,1.1,1.4,1.6,2.1c0.5,0.6,0.9,1.2,1.3,1.7
		c0.4,0.5,0.7,0.9,1.1,1.4c0.4,0.5,0.8,1,1.1,1.4c0.4,0.5,0.8,1,1.2,1.6c0.5,0.6,1,1.2,1.4,1.9c0.5,0.6,1,1.3,1.4,1.9
		c0.5,0.6,0.9,1.2,1.2,1.7c0.3,0.5,0.7,1,1.1,1.5c0.4,0.5,0.7,1,1.1,1.5c0.3,0.5,0.7,1,1.2,1.6c0.4,0.6,0.8,1.1,1.2,1.6
		c0.4,0.5,0.8,1,1.1,1.4c0.4,0.5,0.8,1,1.3,1.6c0.5,0.6,1.1,1.4,1.8,2.2c0.7,0.9,1.4,1.6,2,2.3c0.6,0.7,1.1,1.2,1.5,1.7
		c0.4,0.5,0.9,0.9,1.4,1.5c0.5,0.5,1.1,1.1,1.9,1.9c0.7,0.7,1.5,1.4,2.2,2.1c0.7,0.7,1.4,1.3,2.1,1.9c0.7,0.6,1.3,1.1,1.8,1.6
		c0.5,0.4,0.9,0.8,1.2,1.1c0.3,0.3,0.8,0.7,1.3,1.1c0.6,0.5,1.2,1.1,2,1.7c0.8,0.7,1.5,1.3,2.2,1.9c0.7,0.6,1.4,1.2,2,1.7
		c0.6,0.5,1.3,1.1,1.9,1.7c0.7,0.6,1.4,1.2,2.1,1.8c0.7,0.6,1.4,1.2,2.1,1.7c0.7,0.5,1.3,1.1,1.8,1.5c0.6,0.5,1.1,0.9,1.5,1.3
		c0.4,0.4,0.8,0.7,1.2,0.9c0.3,0.3,0.8,0.6,1.3,1.1c0.6,0.4,1.3,1,2.1,1.6c0.8,0.6,1.6,1.2,2.3,1.7c0.7,0.5,1.4,1,2,1.5
		c0.6,0.4,1.3,0.9,2,1.4c0.8,0.5,1.4,1,2,1.4c0.6,0.4,1.2,0.9,1.9,1.3c0.7,0.5,1.4,0.9,2,1.3c0.6,0.4,1.3,0.9,2.1,1.4
		c0.8,0.5,1.5,1,2.2,1.5c0.7,0.4,1.5,0.9,2.4,1.5c0.9,0.5,1.8,1.1,2.8,1.7c1,0.6,1.9,1.1,2.6,1.5c0.7,0.4,1.3,0.7,1.6,0.9
		c0.4,0.2,0.9,0.5,1.5,0.8c0.6,0.3,1.3,0.7,2.1,1.1c0.8,0.4,1.6,0.8,2.3,1.2c0.7,0.4,1.4,0.7,1.9,0.9c0.5,0.3,1.1,0.5,1.7,0.8
		c0.6,0.3,1.1,0.5,1.7,0.8c0.5,0.3,1.2,0.5,1.9,0.9c0.7,0.3,1.5,0.7,2.2,1c0.8,0.3,1.5,0.6,2.3,1c0.8,0.3,1.6,0.6,2.3,0.9
		c0.8,0.3,1.6,0.6,2.3,0.8c0.8,0.3,1.4,0.5,2,0.6c0.6,0.2,1.1,0.4,1.8,0.6c0.6,0.2,1.2,0.4,1.8,0.6c0.6,0.2,1.3,0.4,2.2,0.6
		c0.9,0.2,1.9,0.5,2.9,0.8c1.1,0.3,2.1,0.5,3,0.8c0.9,0.2,1.7,0.4,2.4,0.6c0.7,0.2,1.3,0.3,1.9,0.4c0.6,0.1,1.2,0.2,1.8,0.4
		c0.6,0.1,1.4,0.3,2.4,0.5c1,0.2,1.9,0.4,2.8,0.5c0.9,0.2,1.8,0.3,2.6,0.5c0.8,0.2,1.7,0.3,2.6,0.5c0.9,0.2,1.9,0.4,2.7,0.5
		c0.9,0.2,1.7,0.3,2.6,0.5c0.8,0.2,1.6,0.3,2.4,0.5c0.8,0.2,1.5,0.3,2.2,0.4c0.7,0.1,1.4,0.3,2,0.4c0.6,0.1,1.3,0.3,2.1,0.4
		c0.8,0.2,1.5,0.3,2.2,0.4c0.7,0.1,1.4,0.3,2.2,0.4c0.8,0.1,1.5,0.3,2.1,0.4c0.6,0.1,1.3,0.2,2,0.3c0.7,0.1,1.4,0.2,1.9,0.3
		c0.6,0.1,1.2,0.2,1.9,0.3c0.7,0.1,1.4,0.2,2,0.3c0.6,0.1,1.4,0.2,2.3,0.2c0.9,0.1,2.5,0.2,4.8,0.4"/>
	<path id="STROKE_8e18b0bc-2665-43d9-8a63-a3397184686d" class="st8" d="M183.7,332c0.5,0.4,1.2,0.9,1.9,1.4
		c0.7,0.6,1.6,1.2,2.5,1.9c0.9,0.7,1.8,1.3,2.6,1.9c0.8,0.6,1.4,1,1.9,1.4c0.5,0.3,1,0.7,1.5,1c0.5,0.3,1.1,0.7,1.7,1.1
		c0.7,0.4,1.4,0.9,2.2,1.4c0.8,0.5,1.8,1.1,2.8,1.7c1,0.6,1.9,1.2,2.8,1.7c0.8,0.5,1.6,1,2.3,1.4c0.7,0.4,1.3,0.8,1.8,1.1
		c0.5,0.3,1.1,0.6,1.7,1c0.6,0.3,1.3,0.7,2.1,1.2c0.8,0.5,1.7,1,2.6,1.5c0.9,0.5,1.7,0.9,2.4,1.3c0.7,0.4,1.3,0.7,1.8,0.9
		c0.5,0.2,1.1,0.5,1.7,0.8c0.6,0.3,1.3,0.6,1.9,0.9c0.6,0.3,1.2,0.6,1.9,0.8c0.6,0.3,1.4,0.6,2.2,1c0.9,0.4,1.8,0.8,2.9,1.3
		c1.1,0.5,2.3,1,3.6,1.5c1.3,0.6,2.5,1.1,3.6,1.5c1.1,0.4,2,0.8,2.8,1.2c0.8,0.3,1.5,0.6,2.1,0.9c0.6,0.2,1.1,0.4,1.5,0.6
		c0.5,0.2,1.1,0.4,1.9,0.8c0.8,0.3,1.6,0.6,2.3,0.9c0.7,0.3,1.4,0.6,2.3,0.9c0.8,0.3,1.6,0.6,2.4,0.9c0.8,0.3,1.5,0.6,2.2,0.8
		c0.7,0.3,1.4,0.5,2,0.8c0.7,0.2,1.4,0.5,2.3,0.8c0.9,0.3,1.9,0.7,3.1,1.1c1.2,0.4,2.4,0.8,3.5,1.2c1.2,0.4,2.2,0.7,3.1,1
		c0.9,0.3,1.7,0.5,2.4,0.7c0.7,0.2,1.4,0.4,2.1,0.6c0.8,0.2,1.6,0.5,2.5,0.7c0.9,0.2,1.8,0.5,2.8,0.8c1,0.3,1.9,0.5,2.7,0.7
		c0.8,0.2,1.6,0.4,2.5,0.7c0.9,0.2,1.8,0.5,2.6,0.7c0.8,0.2,1.6,0.4,2.3,0.6c0.7,0.2,1.4,0.4,2.1,0.5c0.7,0.2,1.4,0.3,2.3,0.5
		c0.9,0.2,1.8,0.4,2.7,0.6c1,0.2,1.8,0.4,2.6,0.6c0.8,0.2,1.6,0.3,2.5,0.5c0.9,0.2,1.7,0.3,2.7,0.5c0.9,0.2,1.8,0.3,2.6,0.5
		c0.8,0.1,1.6,0.3,2.3,0.4c0.7,0.1,1.6,0.3,2.6,0.4c1,0.2,2,0.3,3.1,0.4c1,0.1,1.9,0.3,2.7,0.4c0.8,0.1,1.7,0.2,2.6,0.3
		c0.9,0.1,1.9,0.2,2.9,0.4c1,0.1,2.1,0.3,3.3,0.4c1.2,0.1,2.3,0.3,3.3,0.4c1,0.1,2,0.2,2.8,0.3c0.9,0.1,1.7,0.2,2.4,0.2
		c0.7,0.1,1.6,0.1,2.4,0.2c0.9,0.1,1.8,0.2,2.8,0.2c0.9,0.1,1.8,0.1,2.5,0.2c0.7,0,1.6,0.1,2.6,0.1c1,0,2,0.1,2.9,0.1
		c0.9,0,1.8,0.1,2.9,0.2c1.1,0.1,2.1,0.1,3.1,0.2c1,0.1,2,0.1,3,0.2c1,0.1,1.9,0.1,2.8,0.1c0.9,0,1.8,0.1,2.6,0.1
		c0.8,0,1.7,0.1,2.4,0.1c0.8,0,1.7,0.1,2.7,0.1c1,0,2.1,0.1,3.2,0.1c1.1,0.1,2,0.1,2.7,0.1c0.7,0,1.4,0.1,2,0.1
		c0.6,0,1.5,0.1,2.7,0.1"/>
	<path id="STROKE_2b8f9241-6cd5-46df-9dbb-96e4f55bebf4" class="st8" d="M372.6,382.3c4.3,2.8,6.5,4.2,6.7,4.4
		c0.2,0.1,1.5,1,3.8,2.5"/>
	<path id="STROKE_c2840c58-35ad-40e6-ae88-97316a14e67c" class="st8" d="M382.3,390c-0.9,0.6-1.4,0.9-1.6,0.9
		c-0.2,0.1-0.8,0.4-1.8,1.1c-1,0.6-2.6,1.6-4.7,2.8l-1.7,1"/>
	<path id="STROKE_bb4d0c49-da76-473f-924e-4479ac3de43b" class="st8" d="M372.6,382.3c0.3,0.2,0.5,0.3,0.8,0.5
		c0.3,0.2,0.5,0.3,0.7,0.5c0.2,0.2,0.5,0.3,0.7,0.4c0.2,0.1,0.5,0.3,0.8,0.5c0.3,0.2,0.6,0.4,1,0.6c0.3,0.2,0.7,0.4,0.9,0.6
		c0.3,0.2,0.5,0.3,0.8,0.5c0.2,0.1,0.4,0.3,0.7,0.4c0.2,0.2,0.4,0.2,0.4,0.3c0.1,0,0.2,0.1,0.4,0.2c0.2,0.1,0.4,0.3,0.8,0.5
		c0.3,0.2,0.7,0.5,1.2,0.8c0.5,0.3,1,0.7,1.6,1.1"/>
	<path id="STROKE_60ee0811-9f56-4ac7-98f9-43830e166896" class="st8" d="M383.2,389.4c-1.1,0.7-1.7,1.1-1.9,1.2
		c-0.2,0.1-0.4,0.2-0.6,0.4c-0.3,0.2-0.5,0.3-0.8,0.5c-0.2,0.1-0.5,0.3-0.8,0.5c-0.3,0.2-0.6,0.4-1,0.6c-0.4,0.2-0.7,0.4-1.1,0.7
		s-0.8,0.5-1.3,0.8c-0.5,0.3-1,0.6-1.5,0.9l-1.7,1"/>
	<path id="STROKE_f780fe0e-f493-4d85-acf7-b0a1fcbd997c" class="st8" d="M374.2,498.4c4.3,2.8,6.5,4.2,6.7,4.4
		c0.2,0.1,1.5,1,3.8,2.5"/>
	<path id="STROKE_e9c77917-5cb9-4640-8c97-a54a29da4c2e" class="st8" d="M383.9,506.1c-0.9,0.6-1.4,0.9-1.6,0.9
		c-0.2,0.1-0.8,0.4-1.8,1.1c-1,0.6-2.6,1.6-4.7,2.8l-1.7,1"/>
	<path id="STROKE_2aa585ec-bbd8-4d96-938f-2a27e1c8c5bc" class="st8" d="M374.2,498.4c0.3,0.2,0.5,0.3,0.8,0.5
		c0.3,0.2,0.5,0.3,0.7,0.5c0.2,0.2,0.5,0.3,0.7,0.4c0.2,0.1,0.5,0.3,0.8,0.5c0.3,0.2,0.6,0.4,1,0.6c0.3,0.2,0.7,0.4,0.9,0.6
		c0.3,0.2,0.5,0.3,0.8,0.5c0.2,0.1,0.4,0.3,0.7,0.4c0.2,0.2,0.4,0.2,0.4,0.3s0.2,0.1,0.4,0.2c0.2,0.1,0.4,0.3,0.8,0.5
		c0.3,0.2,0.7,0.5,1.2,0.8c0.5,0.3,1,0.7,1.6,1.1"/>
	<path id="STROKE_d33d7c98-1f3a-4168-ba18-3c83e1f3d6e0" class="st8" d="M384.8,505.5c-1.1,0.7-1.7,1.1-1.9,1.2
		c-0.2,0.1-0.4,0.2-0.6,0.4c-0.3,0.2-0.5,0.3-0.8,0.5c-0.2,0.1-0.5,0.3-0.8,0.5c-0.3,0.2-0.6,0.4-1,0.6c-0.4,0.2-0.7,0.4-1.1,0.7
		c-0.4,0.2-0.8,0.5-1.3,0.8c-0.5,0.3-1,0.6-1.5,0.9l-1.7,1"/>
	<path id="STROKE_531eea95-c38b-4d25-b6ac-b9a210de2fdb" class="st8" d="M617.2,301.9c-0.6-1.8-0.9-3.1-1.1-3.7
		c-0.2-0.6-0.7-2-1.5-4.2c-0.8-2.1-1.5-4.1-2.2-5.8c-0.7-1.8-1.3-3.3-1.9-4.5c-0.6-1.3-1.2-2.6-1.8-4c-0.6-1.4-1.4-3.1-2.4-5.1
		c-0.9-2-1.7-3.6-2.3-4.9c-0.6-1.3-1.1-2.3-1.4-2.9c-0.3-0.6-0.8-1.5-1.3-2.7c-0.6-1.1-1.3-2.5-2.1-4.1c-0.8-1.6-1.6-3.1-2.3-4.3
		c-0.7-1.3-1.4-2.6-2.2-4c-0.8-1.4-1.8-3-2.9-4.7c-1.1-1.7-2-3.1-2.6-3.9c-0.6-0.9-1.3-1.8-2.1-2.9c-0.8-1.1-1.6-2.1-2.5-3.2
		c-0.9-1.1-1.6-2.1-2.3-2.9s-1.4-1.8-2.2-2.8c-0.8-1-1.5-1.9-2.2-2.7c-0.7-0.8-1.2-1.5-1.7-2.2c-0.5-0.6-1.1-1.4-1.7-2.2
		c-0.6-0.8-1.4-1.8-2.2-2.8c-0.8-1.1-1.5-2-2.1-2.8c-0.6-0.8-1.2-1.6-1.8-2.3c-0.6-0.8-1.2-1.6-1.9-2.4c-0.7-0.8-1.4-1.7-2.1-2.5
		c-0.8-0.9-1.4-1.6-2-2.3c-0.6-0.7-1.2-1.3-1.8-1.9c-0.6-0.6-1.6-1.6-3.2-3.1c-1.5-1.4-3-2.8-4.4-4c-1.4-1.2-2.4-2.1-3.1-2.7
		c-0.7-0.6-1.8-1.5-3.4-2.9c-1.6-1.4-3.1-2.6-4.3-3.6c-1.3-1.1-2.7-2.2-4.2-3.5c-1.5-1.2-2.9-2.3-4-3.3c-1.2-0.9-2.1-1.7-2.8-2.2
		c-0.7-0.5-1.8-1.4-3.5-2.6c-1.7-1.2-3-2.2-3.9-2.8c-0.9-0.7-1.9-1.3-2.9-2c-1-0.7-2.2-1.5-3.7-2.4c-1.4-0.9-2.7-1.7-3.7-2.4
		c-1.1-0.7-2.1-1.3-3.2-2c-1.1-0.6-2.7-1.5-4.7-2.7c-2.1-1.2-3.5-1.9-4.3-2.3c-0.8-0.4-1.8-0.9-3-1.5c-1.2-0.6-2.3-1.1-3.3-1.6
		c-1-0.5-2.1-0.9-3.2-1.5c-1.2-0.5-2.2-1-3.2-1.4c-1-0.4-2-0.8-3.2-1.3c-1.2-0.5-2.3-0.9-3.5-1.3c-1.2-0.4-2.3-0.7-3.3-1.1
		c-1-0.3-2.1-0.6-3.4-1c-1.2-0.3-2.4-0.7-3.6-1s-2.6-0.6-4.2-1c-1.7-0.4-3.2-0.7-4.6-1c-1.4-0.3-2.6-0.5-3.4-0.7
		c-0.9-0.2-1.8-0.3-2.7-0.5c-1-0.2-2.1-0.4-3.3-0.6c-1.3-0.2-2.9-0.5-4.8-0.9c-1.9-0.3-3.7-0.7-5.4-1c-1.7-0.3-3.2-0.6-4.6-0.9
		c-1.4-0.3-2.7-0.5-3.7-0.7c-1.1-0.2-1.9-0.4-2.6-0.5c-0.7-0.1-1.6-0.3-2.7-0.5c-1.1-0.2-2.3-0.5-3.8-0.7c-1.5-0.3-2.7-0.5-3.6-0.7
		c-0.9-0.2-1.8-0.3-2.4-0.4c-0.7-0.1-1.4-0.2-2.4-0.4c-0.9-0.1-2.6-0.4-5-0.8"/>
	<path id="STROKE_ff4d9b67-131b-42af-91a4-9711575df374" class="st8" d="M608.8,311.5c-1.1-0.8-2.6-1.9-4.6-3.3
		c-1.9-1.4-3.6-2.5-4.9-3.5c-1.4-0.9-4.1-2.6-8.2-5.1s-7-4.2-8.5-5.1c-1.6-0.9-3.3-1.8-5.2-2.8c-1.9-1-3.4-1.7-4.4-2.2
		c-1-0.5-2.4-1.1-4-1.9c-1.7-0.7-5.2-2.2-10.7-4.5c-5.5-2.2-8.9-3.6-10.1-4.1c-1.2-0.5-3.6-1.4-6.9-2.6c-3.4-1.3-6.3-2.3-8.8-3.2
		c-2.5-0.9-4.9-1.7-7.3-2.4c-2.4-0.8-4.3-1.3-5.7-1.7s-2.9-0.8-4.7-1.3c-1.8-0.5-4.6-1.2-8.3-2.1c-3.7-0.9-6.8-1.7-9.1-2.2
		c-2.4-0.5-4.3-1-6-1.3c-1.6-0.3-3.4-0.7-5.3-1c-1.9-0.3-3.6-0.6-5.1-0.9c-1.5-0.2-3.6-0.5-6.4-0.9c-2.8-0.4-6.6-0.8-11.4-1.4
		c-4.8-0.5-8.4-0.9-10.8-1.1c-2.4-0.2-4.3-0.3-5.7-0.3c-1.4-0.1-4.1-0.1-8.1-0.1c-4,0-7.6,0.1-10.8,0.2c-3.2,0.1-5.8,0.3-8,0.4
		c-2.2,0.1-3.7,0.2-4.7,0.2c-0.9,0-2.2,0-3.7,0.1"/>
	<path id="STROKE_0eb5a279-ffc2-4e15-bb08-874334b62532" class="st8" d="M619.3,342.2c-0.6,1.8-0.9,3.1-1.1,3.7
		c-0.2,0.6-0.7,2-1.5,4.2c-0.8,2.1-1.5,4.1-2.2,5.8c-0.7,1.8-1.4,3.5-2.2,5.2c-0.7,1.7-2,4.5-3.9,8.5c-1.9,4-3.1,6.6-3.7,7.9
		c-0.6,1.3-1.8,3.6-3.4,6.8c-1.7,3.2-3,5.8-4.1,7.6c-1.1,1.9-2.2,3.6-3.3,5.4c-1.1,1.7-2,3.1-2.6,3.9c-0.6,0.9-1.3,1.8-2.1,2.9
		c-0.8,1.1-1.8,2.3-2.9,3.8s-2.5,3.2-4.1,5.2c-1.6,2-2.9,3.6-3.9,4.9c-1,1.3-2.3,3-3.9,5.1c-1.6,2.1-2.8,3.7-3.6,4.7
		c-0.8,1-1.5,1.9-2.2,2.8c-0.7,0.8-1.4,1.7-2.1,2.5c-0.8,0.9-1.4,1.6-2,2.3c-0.6,0.7-1.2,1.3-1.8,1.9c-0.6,0.6-1.6,1.6-3.2,3.1
		c-1.5,1.4-3,2.8-4.4,4c-1.4,1.2-2.4,2.1-3.1,2.7c-0.7,0.6-1.8,1.5-3.4,2.9c-1.6,1.3-3.1,2.6-4.3,3.6c-1.3,1.1-2.7,2.2-4.2,3.5
		c-1.5,1.2-2.9,2.3-4,3.2c-1.2,0.9-2.1,1.7-2.8,2.2c-0.7,0.5-1.8,1.4-3.5,2.6c-1.7,1.2-3.1,2.3-4.4,3.1c-1.2,0.9-3.3,2.2-6.1,4.1
		c-2.9,1.8-5,3.2-6.4,4c-1.4,0.9-3.2,1.8-5.3,3s-3.5,1.9-4.3,2.3c-0.8,0.4-2,1-3.6,1.8c-1.6,0.8-3.6,1.7-6,2.7
		c-2.3,1-4.3,1.8-5.8,2.4c-1.6,0.6-3.1,1.1-4.7,1.6c-1.6,0.5-3.6,1.1-6.1,1.7c-2.5,0.6-4.8,1.2-7,1.7c-2.2,0.5-4,0.8-5.4,1.1
		c-1.4,0.2-2.6,0.4-3.4,0.6c-0.9,0.1-1.9,0.3-3.2,0.5c-1.3,0.2-3.8,0.6-7.6,1.2c-3.8,0.6-7.2,1.1-10,1.6c-2.9,0.5-5,0.8-6.4,1.1
		c-1.4,0.2-3.5,0.6-6.4,1c-2.9,0.4-4.8,0.7-5.7,0.8c-0.9,0.1-1.8,0.2-2.7,0.3c-0.9,0.1-2.6,0.3-5,0.6"/>
	<path id="STROKE_3eb9cc27-581d-4728-a059-2a683428b831" class="st8" d="M610.9,332.6c-1.1,0.8-2.6,1.9-4.6,3.3
		c-1.9,1.4-3.6,2.5-4.9,3.5c-1.4,0.9-4.1,2.6-8.2,5.1c-4.1,2.5-7,4.2-8.5,5.1c-1.6,0.9-3.3,1.8-5.2,2.8c-1.9,1-3.4,1.7-4.4,2.2
		c-1,0.5-2.4,1.1-4,1.9c-1.7,0.7-5.2,2.2-10.7,4.5c-5.5,2.2-8.9,3.6-10.1,4.1c-1.2,0.5-3.6,1.4-6.9,2.6c-3.4,1.3-6.3,2.3-8.8,3.2
		c-2.5,0.9-4.9,1.7-7.3,2.4c-2.4,0.8-4.3,1.3-5.7,1.7c-1.4,0.4-2.9,0.8-4.7,1.3c-1.8,0.5-4.6,1.2-8.3,2.1c-3.7,0.9-6.8,1.7-9.1,2.2
		c-2.4,0.5-4.3,1-6,1.3c-1.6,0.3-3.4,0.7-5.3,1c-1.9,0.3-3.6,0.6-5.1,0.9c-1.5,0.2-3.6,0.5-6.4,0.9c-2.8,0.4-6.6,0.8-11.4,1.4
		c-4.8,0.5-8.4,0.9-10.8,1.1c-2.4,0.2-4.3,0.3-5.7,0.3c-1.4,0.1-4.1,0.1-8.1,0.1c-4,0-7.6-0.1-10.8-0.2c-3.2-0.1-5.8-0.3-8-0.4
		c-2.2-0.1-3.7-0.2-4.7-0.2s-2.2,0-3.7-0.1"/>
	<path id="STROKE_095296b3-2d24-40ef-9872-4d8d6acc61dd" class="st8" d="M604,330.1c4-0.4,6.1-0.6,6.3-0.6c0.2,0,1.4-0.1,3.5-0.3"/>
	<path id="STROKE_e52a52b6-e64c-4df3-8e37-1286875c7d3d" class="st8" d="M613.7,330.3c-0.3,0.9-0.4,1.4-0.5,1.6
		c-0.1,0.2-0.3,0.8-0.6,1.8c-0.3,1.1-0.9,2.6-1.6,4.7l-0.6,1.7"/>
	<path id="STROKE_de50f293-3e17-4651-b495-29358e500ce8" class="st8" d="M604,330.1c0.2,0,0.5,0,0.7-0.1c0.2,0,0.5,0,0.7-0.1
		c0.2,0,0.4,0,0.6-0.1c0.2,0,0.5,0,0.7-0.1c0.3,0,0.6-0.1,0.9-0.1c0.3,0,0.6-0.1,0.9-0.1c0.3,0,0.5,0,0.7-0.1c0.2,0,0.4,0,0.6-0.1
		c0.2,0,0.4,0,0.4,0c0,0,0.2,0,0.3,0c0.2,0,0.4,0,0.7-0.1c0.3,0,0.7-0.1,1.1-0.1c0.4,0,0.9-0.1,1.5-0.1"/>
	<path id="STROKE_d9992927-2b43-45c8-9b74-ee22019b14f8" class="st8" d="M614,329.3c-0.3,1.1-0.5,1.8-0.6,1.9
		c-0.1,0.1-0.1,0.4-0.2,0.6c-0.1,0.3-0.2,0.5-0.3,0.8c-0.1,0.2-0.2,0.5-0.3,0.8c-0.1,0.3-0.2,0.6-0.3,1c-0.1,0.4-0.2,0.7-0.4,1.1
		c-0.1,0.4-0.3,0.8-0.4,1.3c-0.2,0.5-0.3,0.9-0.5,1.5l-0.6,1.7"/>
	<path id="STROKE_cd567d3c-87fa-4044-9bad-8141a8761a1e" class="st8" d="M613.8,345.6c2.7-3.3,4.1-5.1,4.2-5.2
		c0.1-0.2,0.9-1.2,2.4-3"/>
	<path id="STROKE_41a6d68e-3d40-495e-b47c-f6406e96d61b" class="st8" d="M620.9,338.3c0.3,0.9,0.5,1.4,0.5,1.5s0.2,0.8,0.6,1.8
		c0.3,1,0.8,2.5,1.5,4.5l0.5,1.7"/>
	<path id="STROKE_a2903753-8469-4e6d-b40f-c828f81e9bb1" class="st8" d="M613.8,345.6c0.2-0.2,0.3-0.4,0.5-0.6
		c0.2-0.2,0.3-0.4,0.5-0.6c0.1-0.2,0.3-0.4,0.4-0.5c0.1-0.2,0.3-0.4,0.5-0.6c0.2-0.2,0.4-0.5,0.6-0.8c0.2-0.3,0.4-0.5,0.6-0.7
		c0.2-0.2,0.3-0.4,0.5-0.6c0.1-0.2,0.3-0.3,0.4-0.5c0.1-0.2,0.2-0.3,0.3-0.3c0,0,0.1-0.1,0.2-0.3c0.1-0.1,0.3-0.3,0.5-0.6
		c0.2-0.3,0.5-0.6,0.7-0.9c0.3-0.4,0.6-0.8,1-1.2"/>
	<path id="STROKE_b8840feb-5aff-48c5-a522-5bc5ea4ef12a" class="st8" d="M620.5,337.4c0.4,1.1,0.6,1.7,0.6,1.8
		c0,0.1,0.1,0.4,0.2,0.6c0.1,0.3,0.2,0.5,0.2,0.8c0.1,0.2,0.2,0.5,0.3,0.8c0.1,0.3,0.2,0.6,0.3,0.9c0.1,0.3,0.2,0.7,0.4,1.1
		c0.1,0.4,0.3,0.8,0.4,1.3c0.1,0.4,0.3,0.9,0.5,1.4l0.5,1.7"/>
	<path id="STROKE_725cc069-2c0c-467f-9da2-e8bfaffd4052" class="st8" d="M609.1,303.5c1.3,4.9,2,7.5,2.1,7.7
		c0.1,0.2,0.5,1.7,1.2,4.3"/>
	<path id="STROKE_1ea2b199-7d59-4081-9892-76e688cabfe0" class="st8" d="M611.3,315.6c-0.9-0.1-1.4-0.2-1.5-0.3
		c-0.2-0.1-0.8-0.2-1.8-0.3c-1-0.2-2.6-0.4-4.6-0.8l-1.7-0.3"/>
	<path id="STROKE_16a9dfc6-bfbd-4fe3-8679-fbf7f0d3eee9" class="st8" d="M609.1,303.5c0.1,0.3,0.2,0.6,0.2,0.9
		c0.1,0.3,0.2,0.6,0.2,0.8c0.1,0.3,0.1,0.5,0.2,0.8c0.1,0.3,0.1,0.6,0.2,0.9c0.1,0.3,0.2,0.7,0.3,1.1c0.1,0.4,0.2,0.8,0.3,1.1
		c0.1,0.3,0.2,0.6,0.2,0.9c0.1,0.3,0.1,0.5,0.2,0.8c0.1,0.3,0.1,0.4,0.1,0.5c0,0.1,0.1,0.2,0.1,0.4c0.1,0.2,0.1,0.5,0.2,0.9
		c0.1,0.4,0.2,0.8,0.4,1.4c0.1,0.5,0.3,1.2,0.5,1.9"/>
	<path id="STROKE_13658f31-35b7-41b7-8492-12813aed04ac" class="st8" d="M612.2,315.7c-1.1-0.2-1.7-0.2-1.9-0.3
		c-0.1,0-0.4-0.1-0.6-0.1c-0.3,0-0.5-0.1-0.8-0.1c-0.2,0-0.5-0.1-0.8-0.1c-0.3,0-0.6-0.1-1-0.2c-0.4-0.1-0.7-0.1-1.1-0.2
		c-0.4-0.1-0.8-0.1-1.3-0.2c-0.5-0.1-0.9-0.2-1.5-0.3l-1.7-0.3"/>
	<path id="STROKE_0926f542-d744-4968-9a03-a7952bc722bd" class="st8" d="M623.3,297.2c-1.5,5-2.3,7.6-2.4,7.9
		c-0.1,0.2-0.5,1.7-1.3,4.5"/>
	<path id="STROKE_3f1454e0-f224-4acc-85ae-34d814b19503" class="st8" d="M618.6,308.9c-0.7-0.7-1-1.2-1.1-1.4
		c-0.1-0.2-0.5-0.7-1.3-1.6s-1.9-2.3-3.4-4l-1.2-1.5"/>
	<path id="STROKE_72988abf-ddaf-4169-b398-6b6a94f24297" class="st8" d="M623.3,297.2c-0.1,0.3-0.2,0.6-0.3,0.9
		c-0.1,0.3-0.2,0.6-0.3,0.9c-0.1,0.3-0.2,0.5-0.2,0.8c-0.1,0.3-0.2,0.6-0.3,0.9c-0.1,0.4-0.2,0.7-0.3,1.1c-0.1,0.4-0.2,0.8-0.3,1.1
		c-0.1,0.3-0.2,0.6-0.3,0.9c-0.1,0.3-0.2,0.5-0.2,0.8c-0.1,0.3-0.1,0.4-0.2,0.5c0,0.1-0.1,0.2-0.1,0.4c-0.1,0.2-0.2,0.5-0.3,0.9
		c-0.1,0.4-0.3,0.8-0.4,1.4c-0.2,0.5-0.4,1.2-0.6,1.9"/>
	<path id="STROKE_583579b5-f529-4ae8-99f5-ae161ab1060a" class="st8" d="M619.3,309.7c-0.8-0.9-1.3-1.5-1.4-1.6
		c-0.1-0.1-0.2-0.3-0.4-0.6c-0.2-0.2-0.4-0.5-0.6-0.7c-0.2-0.2-0.4-0.4-0.6-0.7c-0.2-0.3-0.5-0.5-0.7-0.8c-0.3-0.3-0.5-0.6-0.8-1
		s-0.6-0.7-0.9-1.1c-0.3-0.4-0.7-0.8-1.1-1.3l-1.2-1.5"/>
	<path id="STROKE_ba0931b7-f15b-4071-b09b-7ad8552f960b" class="st8" d="M396,84.5c0-0.4,0-0.7,0-0.9c0-0.2,0.2-0.8,0.4-1.9
		c0,0,0,1.6-0.1,4.9c-0.1,3.3-0.1,5.8-0.1,7.7c0,1.9,0.1,4.8,0.3,8.7c0.2,3.9,0.3,8.5,0.2,13.7c0,0-0.1-0.2-0.1-0.5
		c-0.1-0.4-0.1-0.6-0.2-0.9"/>
	<path id="STROKE_2a020266-73f9-45ea-a44f-4cb268e6329e" class="st8" d="M395.4,80.2c0.1-0.1,0.1-0.2,0.2-0.2
		c0.2-0.1,0.3-0.2,0.3-0.2c0,0,0.1,0.1,0.3,0.2c0.2,0.1,0.3,0.4,0.5,0.8c0.2,0.4,0.7,1.4,1.4,2.8c0.8,1.4,1.5,2.6,2.1,3.6
		c0.7,1,1.3,1.8,2.1,2.6c0.7,0.7,1.3,1.2,1.7,1.6c0.4,0.3,0.8,0.6,1.4,0.9l0.1,0c0.2,0.1,0.9-0.7,2-2.4c1.1-1.7,2-3,2.5-3.9
		c0.5-0.9,1.3-2.2,2.2-3.9c0.9-1.7,2.1-3.5,3.5-5.4c0,0.1,0,0.1,0,0.2c0,0-0.1,0.8-0.1,2.2c-0.1,1.5-0.1,2.6-0.1,3.5
		c0,0.9,0,1.7,0,2.4c0,0.7,0,3.6,0,8.5c0,4.9,0,8.8-0.1,11.5s0,4.7,0.1,5.9c0.1,1.2,0.1,1.9,0.2,2.3c0,0.4,0.1,0.7,0.2,0.9
		c0.1,0.2,0.2,0.4,0.4,0.4c0,0,0.1-0.1,0.2-0.2c0.1-0.1,0.1-0.3,0.2-0.4"/>
	<path id="STROKE_3f967a60-b88a-48e2-8857-9f1b2dfbeb37" class="st9" d="M427,111.2c0,0,0.2,0,0.7,0c0.5,0,1.1-0.3,1.9-1
		c0.8-0.7,1.4-1.4,1.8-2.2c0.4-0.8,0.7-1.4,0.8-1.9c0.2-0.5,0.2-1.1,0.2-1.5c0-0.5-0.1-0.8-0.4-1c-0.3-0.2-0.6-0.2-1.1-0.1
		c-0.5,0.1-0.9,0.3-1.2,0.5c-0.3,0.3-0.6,0.7-1,1.1c-0.4,0.5-0.6,0.9-0.8,1.4c-0.2,0.4-0.3,0.9-0.3,1.5c0,0.5-0.1,1.1-0.1,1.6
		c0,0.5,0.1,1.1,0.3,1.8c0.2,0.7,0.7,1.2,1.4,1.6c0.7,0.4,1.5,0.6,2.3,0.7c0.9,0.1,1.6,0.1,2.2,0.2c0.6,0.1,1.4,0,2.4-0.3
		c1-0.3,2.1-1,3.1-2.3c1-1.3,1.8-2.5,2.5-3.8c0.7-1.2,1.7-3.3,3-6.1c1.3-2.9,2.5-8.9,3.6-17.9c0-0.1-0.2,1.2-0.6,4
		c-0.5,2.7-0.8,5.8-0.9,9.3c-0.1,3.5-0.2,6.1-0.3,7.9c0,1.8,0,3.1,0.2,4c0.2,0.9,0.3,1.5,0.5,1.8c0.2,0.3,0.4,0.5,0.7,0.6
		c0.3,0.1,0.6,0.1,1-0.1c0.4-0.2,1.2-1.2,2.5-3c1.3-1.9,2.3-3.4,3.1-4.6c0.8-1.2,1.8-2.2,3.1-3.1c1.3-0.9,2.8-1.3,4.4-1.3
		c-0.2,0.2-0.3,0.3-0.3,0.3c-0.2-0.1-1,0.3-2.2,1s-2.3,1.6-3.1,2.5c-0.8,0.9-1.3,1.6-1.6,1.9c-0.2,0.4-0.4,0.9-0.5,1.5
		c-0.1,0.6-0.1,1.3,0,1.9c0.1,0.6,0.3,1,0.4,1.1s0.4,0.2,0.8,0.2c0.4,0,0.6,0,0.8,0c0.1,0,0.5-0.2,0.9-0.6s1.3-1.6,2.4-3.8
		c1.1-2.2,2-4.1,2.7-6c0-0.1,0,0.2-0.2,0.8c-0.2,0.6-0.3,1.2-0.3,1.7c-0.1,0.5-0.1,1.3-0.1,2.4c0,1.1,0.2,2,0.4,2.8
		c0.3,0.8,0.5,1.3,0.7,1.5c0.2,0.2,0.5,0.3,0.9,0.5c0.4,0.1,0.9,0.2,1.3,0c0.5-0.1,1-0.4,1.5-0.9c0.5-0.5,0.9-0.9,1.3-1.3
		c0.4-0.4,0.9-1.2,1.5-2.2c0.7-1,1.4-2.4,2.2-4c0,0.3,0,0.5-0.1,0.5c-0.1,0.3-0.6,2.5-1.3,6.5c-0.7,4-1.3,8-1.7,12.2
		c-0.1-0.1,0-1.6,0.3-4.6c0.4-3,0.8-5.7,1.4-8c0.6-2.3,1.2-4.2,1.8-5.8c0.6-1.5,1.2-2.6,1.7-3.3c0.5-0.7,0.9-1.1,1.2-1.3
		c0.3-0.2,0.6-0.3,0.8-0.3c0.2,0,0.4,0,0.5,0c0.1,0,0.3,0.3,0.7,0.8c0.4,0.5,0.6,1,0.8,1.5c0.2,0.4,0.3,0.9,0.4,1.4
		c0.1,0.5,0.1,0.9,0.2,1.2c0,0.3,0.1,0.5,0.1,0.6c0,0.1,0,0.4-0.1,0.7c-0.1,0.3-0.2,0.7-0.5,1.2c-0.3,0.5-0.9,0.9-2,1.3
		s-1.8,0.6-2.4,0.6c-0.6,0-1,0.1-1.2,0.1c-0.2,0-0.5,0.1-0.7,0.2c0.3,0.2,1,0.4,2.1,0.4c1.1,0.1,2,0.1,2.7,0c0.8,0,1.5-0.2,2.2-0.5
		c0.7-0.3,1.8-1.2,3.2-2.7c1.4-1.5,2.7-3,3.6-4.4c1-1.4,2-3.6,3.1-6.6c1.1-2.9,1.9-6.6,2.4-11c-0.1,0-0.3,1.4-0.6,4.1
		c-0.3,2.7-0.7,5.4-1.1,7.9c-0.4,2.5-0.7,4.6-1,6.1c-0.2,1.5-0.8,4.1-1.6,7.8c-0.1-0.1,0.2-1.3,1-3.7c0.8-2.3,1.6-4.2,2.3-5.5
		c0.7-1.3,1.3-2.2,1.8-2.7c0.4-0.5,0.8-0.8,1.1-1c0.3-0.2,0.5-0.3,0.6-0.3c0.1,0,0.1,0,0.1,0c0,0,0.1,0.2,0.1,0.7
		c0.1,0.5,0.1,1.1,0,1.8c0,0.7-0.1,1.5-0.2,2.3c-0.1,0.8-0.1,1.6-0.2,2.3c0,0.7,0,1.3-0.1,1.7c0,0.4,0,0.8,0.1,1.2
		c0.1,0.4,0.2,0.6,0.3,0.8c0.1,0.2,0.2,0.3,0.2,0.3c0,0,0.2,0.1,0.4,0.2c0.3,0.1,0.8-0.1,1.6-0.7c0.8-0.6,2.6-3,5.5-7.2
		c0,0,0,0.5,0,1.5c-0.1,1-0.1,1.9-0.1,2.9c0,0.9,0,1.4,0,1.6c0,0.1,0,0.2,0,0.4c0,0.1,0,0.3,0.1,0.4c0,0.1,0.2,0.2,0.3,0.4
		c0.2,0.2,0.5,0.3,0.8,0.3c0.4,0,1-0.4,1.9-1.4c0.9-1,1.8-3.9,2.7-8.9c0-0.1,0,1.4-0.3,4.5c-0.2,3.1-0.6,6-1,8.6
		c-0.4,2.6-0.9,4.7-1.5,6.3c-0.5,1.6-1.1,3-1.7,4.2c-0.6,1.2-1.3,2.2-1.9,3c-0.7,0.8-1.5,1.4-2.6,1.6c-0.5-0.5-0.1-1.6,1.2-3.3
		c1.3-1.7,2.6-3,3.8-4.2c1.2-1.1,2.2-2.3,3.1-3.5c0.9-1.2,1.9-2.6,3-4.4c1.1-1.7,2.4-3.9,3.7-6.5c1.3-2.6,2.5-6.3,3.7-10.9
		c0-0.1-0.2,0.2-0.4,0.7c-0.3,0.6-0.4,1.3-0.5,2.4c-0.1,1,0,2,0.3,2.8c0.2,0.9,0.6,1.9,0.9,3.1c0.4,1.2,0.5,2.2,0.4,3
		c-0.1,0.8-0.2,1.4-0.4,1.8c-0.2,0.4-0.4,0.7-0.7,1c-0.2,0.3-0.6,0.5-1.1,0.8c-0.5,0.2-1,0.3-1.3,0.2c-0.3-0.1-0.6-0.2-0.6-0.2
		c-0.1-0.1-0.2-0.2-0.2-0.3c-0.1-0.1-0.1-0.2-0.1-0.3l0.3,0.1c0.6,0.2,0.9,0.2,0.9,0.2s0.5,0,1.5,0.1c1,0.1,2-0.1,3.1-0.5
		c1.1-0.4,2.1-1,3.1-1.8s2-1.9,3.1-3.2c1.1-1.3,2-2.8,2.8-4.3c0,0.3,0,0.4-0.1,0.4c-0.2,0.6-0.4,1.6-0.6,3.1
		c-0.2,1.5-0.3,2.7-0.3,3.6s0.1,1.5,0.3,1.8c0.1,0.3,0.6,0.6,1.4,1.1c0.8,0.4,2-0.1,3.6-1.6c1.5-1.5,2.8-2.8,3.7-3.8
		c0.9-1,1.9-2,2.9-3c1-1,3.3-1.4,6.8-1.2c0.2,0-0.2,0-1.1-0.1c-0.9-0.1-2,0.3-3.2,1.1c-1.2,0.9-2.1,1.5-2.7,2.1
		c-0.6,0.5-1,1.1-1.4,1.6c-0.4,0.5-0.6,1.2-0.8,1.9s0,1.3,0.4,1.9c0.4,0.6,1.2,1,2.3,1.4c1.1,0.3,2.3,0.4,3.6,0.2
		c1.2-0.2,2.6-0.8,4-1.8c1.4-1,2.6-1.9,3.4-2.7c0.8-0.7,1.6-1.9,2.5-3.3c0.9-1.5,1.5-2.7,1.9-3.8c0.4-1,0.6-1.8,0.6-2.3
		c-0.1,0-0.2,0-0.5,0c-0.2,0.1-0.4,0.1-0.4,0.2c0,0.1-0.1,0.4-0.1,1c0,0.5-0.1,1-0.1,1.4c0,0.4,0.1,0.9,0.2,1.4
		c0.1,0.5,0.3,1.2,0.7,2.1c0.4,0.9,0.7,1.7,1.1,2.6c0.4,0.9,0.6,1.6,0.6,2.1c0,0.5,0,0.9,0,1c0,0.1-0.1,0.2-0.1,0.3
		c-0.1,0.1-0.2,0.2-0.5,0.3c-0.3,0.2-0.5,0.3-0.6,0.3c-0.2,0-0.6,0.1-1.4,0.3c-0.8,0.2-1.6-0.3-2.6-1.3c-1-1.1-1.6-1.7-1.7-1.9"/>
	<path id="STROKE_9f4ec21f-70fb-4675-a844-1b227831633f" class="st9" d="M439.6,91.4c0.7,0.1,2.7,0,5.8-0.6s6.2-1.3,9.1-2.2
		c3-1,4.8-1.6,5.5-1.9"/>
	<circle id="STROKE_f74d5a0f-0f34-42b1-8ac4-4393ede75e7b" class="st10" cx="530" cy="86.4" r="1.5"/>
	<path id="STROKE_35f9ab33-177d-4e67-8258-4e8acc645357" class="st8" d="M397.6,205.2c0,0,0,0.4-0.1,1.1c0,0.8-0.1,1.5-0.1,2.3
		c0,0.8-0.1,1.6-0.2,2.6c-0.1,1-0.1,2-0.2,2.9c0,0.9-0.1,2-0.1,3.3c0,1.3-0.1,2.4,0,3.5c0,1.1,0,2.1-0.1,3c-0.1,1-0.2,2-0.3,3.2
		c-0.1,1.2-0.3,2.5-0.6,4c-0.2,1.4-0.5,3-0.8,4.7c0.1,0.1,0,0.1-0.1,0.1l0,0c0.8,0,2.1-0.1,3.8-0.4c1.7-0.3,3.2-0.5,4.6-0.8
		c1.4-0.3,2.7-0.5,3.8-0.5c1.1-0.1,1.8-0.1,2-0.1"/>
	<path id="STROKE_70e2be74-07d4-4a73-8b3f-391c009d2980" class="st8" d="M396.4,218.9c0.4,0,1.7,0,4-0.1c2.2-0.1,4.3-0.4,6.2-0.9
		c1.9-0.5,2.9-0.8,3-0.9"/>
	<path id="STROKE_38e63e07-71cc-4a8b-851c-34b545de5290" class="st8" d="M395.3,204.4c0.4,0,2.6-0.6,6.6-1.7c4-1.2,7.2-2,9.6-2.6
		c2.4-0.6,3.9-1,4.3-1.1"/>
	<path id="STROKE_c5a30b41-27b7-4a75-a333-fb8a032c64c8" class="st9" d="M421.4,223.8l-0.2,0.1c0,0-0.1,0.2-0.2,0.5
		c-0.1,0.4-0.2,0.9-0.3,1.7c-0.1,0.8-0.2,1.5-0.3,2.3c-0.1,0.8,0,4.5,0.3,11.1c0,0.1-0.2-1.3-0.7-4.1c-0.4-2.8-0.6-5.1-0.6-6.9
		c0.1-1.8,0.1-3.2,0-4.3c-0.1-1.1,0.2-2,0.7-2.8c0.5-0.8,1.2-1.3,2-1.4c0.8-0.1,1.5-0.1,2,0.1c0.5,0.2,1,0.4,1.3,0.6
		c0.4,0.3,0.9,0.8,1.6,1.7c0.7,0.9,1.2,1.7,1.4,2.5c0.2,0.8,0.3,1.5,0.3,2.1c0,0.6-0.4,1.2-1.1,2c-0.7,0.8-1.6,1.4-2.6,1.8
		c-1,0.4-1.9,0.6-2.6,0.5c-0.7-0.1-1.2-0.3-1.5-0.6c-0.3-0.3-0.5-0.6-0.7-0.9"/>
	<path id="STROKE_a6e3ca3e-91af-4205-8df5-c369eb7dcba5" class="st9" d="M436,220.6c0-0.1-0.3,1.5-1,4.9c-0.6,3.4-1,5.1-1,5.2"/>
	<path id="STROKE_38399909-c634-461f-af26-26efa7439395" class="st9" d="M446.7,219c0-0.1-0.2-0.2-0.6-0.4c-0.4-0.1-0.8-0.2-1.3-0.2
		c-0.5,0-1,0.1-1.5,0.4c-0.5,0.3-0.9,0.5-1,0.6c-0.1,0.1-0.2,0.2-0.2,0.2c0,0-0.1,0.2-0.4,0.6c-0.3,0.4-0.5,1-0.7,1.9
		c-0.2,0.9,0,1.8,0.6,2.7c0.6,0.9,1.2,1.6,1.7,2.1c0.5,0.5,0.8,1.3,1,2.5c0,0.2-2.2,0.9-6.8,2.3c-0.2-0.1-0.3-0.2-0.5-0.2"/>
	<path id="STROKE_4c7608d4-a733-4eea-b29f-66c74f7caf8b" class="st9" d="M450.7,220.1c-0.4,0.6-1,2.8-1.7,6.6s-1.1,5.8-1.2,6.1"/>
	<path id="STROKE_4cc7be8d-50f5-424a-a9b3-9b0cf216c01e" class="st9" d="M445.3,226.1c0.1,0,0.3,0.1,0.4,0.1c0.2,0,0.8,0.2,1.8,0.6
		c1.1,0.3,2.2,0.5,3.6,0.7c1.3,0.1,2.5,0.2,3.5,0.2c1,0,1.9-0.1,2.7-0.2c0.8-0.2,1.4-0.5,1.9-0.9c0.5-0.5,0.7-0.8,0.7-1.1
		c0-0.3-0.1-0.4-0.1-0.4c0,0-0.2-0.1-0.4-0.2c-0.3-0.1-0.6-0.2-0.9-0.2c-0.3,0-0.6,0-0.9,0.1c-0.2,0.1-0.4,0.2-0.6,0.3
		c-0.1,0.1-0.2,0.2-0.2,0.2c0,0-0.1,0.1-0.2,0.2c-0.1,0.1-0.2,0.5-0.4,1.1c-0.1,0.6-0.1,1.2,0,1.9c0.1,0.6,0.5,1.3,1.2,1.9
		c0.6,0.6,1.3,1.1,2,1.4c0.7,0.3,1.5,0.3,2.5,0.2c1-0.1,2.9-2.8,5.7-8l0.1,0c0,0,0.4,2.2,1,6.9c0.2-0.1,0.7-0.7,1.5-2
		c0.8-1.3,1.4-2.3,2-2.9c0.6-0.6,1-1,1.3-1.2c0.3-0.2,0.4-0.2,0.4-0.2c0,0,0.2,0,0.5,0.1c0.1,0.1,0.4,1.9,0.8,5.1
		c0,0,1.7-2.2,5.3-6.6c0.1,1.5,0.1,2.3,0.2,2.5c0,0.2,0,0.5,0.1,0.8c0.1,0.3,0.1,0.5,0.2,0.7c0.1,0.2,0.2,0.4,0.5,0.8
		c0.2,0.4,0.5,0.7,0.8,0.9c0.3,0.2,0.5,0.4,0.7,0.4c0.1,0.1,0.5,0.1,0.9,0.1c0.5,0,0.9,0,1.3-0.2c0.4-0.2,0.7-0.4,1-0.6
		c0.3-0.2,0.6-0.5,0.8-0.7c0.3-0.3,0.6-0.7,1.1-1.3c0.5-0.6,0.9-1.3,1.2-2.2c-0.3,0.1-0.7,0.7-1.2,1.8c-0.5,1.1-0.6,2.7-0.1,5
		c0.3,0.2,0.8,0,1.5-0.4c0.7-0.4,1.2-1.1,1.5-2c0.4-0.9,0.5-1.7,0.6-2.3c0-0.6-0.1-1.1-0.2-1.6c-0.2-0.4-0.6-1-1.3-1.5
		c-0.7-0.6-1.5-0.9-2.2-0.9c-0.3,0.4,0,1.1,1,1.9c1,0.9,2.2,1.4,3.5,1.5c1.3,0.1,2.4,0,3.3-0.3c0.9-0.4,1.9-1.1,2.9-2.4
		c1-1.2,2-2.5,2.7-3.8c0.8-1.3,1.3-2.9,1.7-4.7c0.3-1.8,0.1-3.7-0.6-5.5c-0.6-0.3-1.3,1-1.9,4.1c-0.7,3-1.1,5.5-1.2,7.3
		c-0.1,1.8-0.2,3.2-0.1,4c0,0.8,0.1,1.4,0.1,1.6c0.1,0.3,0.2,0.6,0.5,1c0.3,0.4,0.6,0.7,1,1c0.4,0.2,0.7,0.4,1.1,0.4
		c0.3,0,0.7,0.1,1.2,0.1c0.5,0,1.1-0.2,1.8-0.8c0.7-0.5,1.2-1,1.5-1.4c0.3-0.4,1.6-2.9,3.7-7.5c-0.1,0.4-0.4,1.4-1.1,2.8
		c-0.7,1.5-1.1,2.9-1.3,4.4c-0.2,1.4-0.1,2.3,0.1,2.7c0.3,0.3,0.8,0.5,1.5,0.5c0.7,0,1.5-0.4,2.3-1.2c0.8-0.8,1.4-1.7,1.7-2.6
		c0.3-0.9,0.5-1.7,0.6-2.4c0.1-0.6,0-1.4-0.2-2.2c-0.2-0.8-1.3-1.5-3.3-2.2c-0.1,0.1-0.1,0.5-0.1,1.3c0,0.8,0.3,1.4,0.8,1.9
		c0.5,0.5,1.1,0.9,1.6,1.1c0.5,0.2,1.4,0.4,2.7,0.4c1.2,0,2.8-0.5,4.5-1.5s3.2-1.9,4.4-2.8c1.1-0.9,1.7-1.7,1.8-2.6
		c-0.2-0.2-0.7-0.3-1.5-0.1c-0.8,0.1-1.6,0.5-2.4,1.1s-1.5,1.3-2.1,2c-0.6,0.7-1.1,1.4-1.5,2s-0.5,2-0.3,4.2c0,0,0.3,0.2,0.9,0.4
		c0.7,0.2,1.7-0.4,3.1-1.7c1.4-1.3,3.2-3.9,5.2-7.9c0,0.5-0.1,0.8-0.1,0.8c-0.2,0.2-0.7,2.5-1.4,6.8c-0.7,4.3-1.3,7.6-1.6,9.9
		c-0.3,2.3-0.7,4.1-1.2,5.4c-0.5,1.3-0.9,2.2-1.2,2.7c-0.3,0.5-0.7,0.8-1.1,1c-0.4,0.2-0.8,0.3-1,0.3c-0.3,0-0.6-0.2-0.9-0.5
		c-0.3-0.4-0.5-0.7-0.6-1.1c-0.1-0.4-0.2-1.1-0.3-2c-0.1-0.9,0.1-2.2,0.5-3.8c0.5-1.6,1.1-3.1,2-4.7c0.9-1.6,2.1-3.1,3.7-4.7
		c1.6-1.5,2.9-2.9,4.2-4c1.2-1.1,2.2-2,2.8-2.6c0.7-0.6,1.1-1.1,1.3-1.3c0.2-0.3,0.4-0.5,0.5-0.8c-0.3,0.1-0.4,0.1-0.4,0.2
		c-0.3,0.2-0.5,0.8-0.9,1.8c-0.3,1-0.2,2.2,0.3,3.8c0,0,0.3,0.2,0.7,0.5c0.5,0.3,1.5,0,3-0.8c1.5-0.8,3.2-3,4.9-6.5
		c0.1,0,0,0.6-0.1,1.5c-0.1,1-0.3,2.4-0.6,4.2c-0.3,1.8-0.5,3.5-0.8,5c-0.2,1.5-0.5,3.2-0.8,5c-0.3,1.8-0.8,3.7-1.5,5.5
		c-0.7,1.8-1.9,3.2-3.6,4.1c-0.2-0.7-0.3-1.1-0.3-1.1c0,0,0.1-0.8,0.3-2.2c0.2-1.4,0.7-2.9,1.5-4.3c0.7-1.4,1.6-3,2.7-4.6
		c1.1-1.7,3.5-3.1,7.1-4.4c3.7-1.3,5.7-2,6.1-2.2"/>
	<path id="STROKE_b339bc1c-98b1-4b28-888d-ae3b3abc170a" class="st8" d="M387.9,434.8c-0.1,0.2,0.3-0.6,1.1-2.4
		c0.9-1.8,2-4.9,3.3-9.1c1.4-4.2,2.5-7.6,3.4-10.2c0.9-2.6,1.5-4.5,2-5.6c0.4-1.1,0.7-2,0.9-2.4c0.2-0.5,0.5-0.8,0.9-1
		c0.1,0.2,0.1,0.4,0.2,0.6c0,0.3,0.2,0.8,0.4,1.5c0.3,0.7,0.5,1.4,0.7,2c0.2,0.6,0.4,1.1,0.5,1.4c0.1,0.4,0.2,0.7,0.4,1.2
		c0.1,0.4,0.6,2.2,1.5,5.4c0.9,3.2,1.7,6.1,2.5,8.8c0.8,2.7,1.4,4.8,1.9,6.1c0.5,1.4,0.8,2.4,1.1,3c0.2,0.6,0.5,1.1,0.8,1.4l0.1-0.3
		"/>
	<path id="STROKE_485fe9f4-ae38-4a47-bbe0-4545f131b735" class="st8" d="M391.1,423.1L391,423c0.1-0.7,1.4-1.1,4.1-1.2
		c2.6-0.1,4.9-0.2,6.8-0.2c1.9,0,3.4-0.2,4.5-0.5c1.1-0.3,1.8-0.5,2.3-0.7"/>
	<path id="STROKE_b74c4d2e-49ad-4d84-b438-0bcaed38770d" class="st9" d="M419.9,423.2c0.1-0.1,0.2-0.1,0.4-0.3
		c0.2-0.1,0.4-0.2,0.4-0.2c0,0,0.1,0,0.2,0c0.1,0,0.2,0.1,0.4,0.3c0.2,0.2,1.8,4.5,4.6,12.7l0.1,0.1"/>
	<path id="STROKE_e72c28f3-6206-46be-99af-9a702f637c06" class="st9" d="M429,422.1c-0.7,0.7-2.3,2.8-4.9,6.5
		c-2.6,3.7-3.9,5.6-4.1,5.8"/>
	<path id="STROKE_ca145aba-173c-4b97-80a3-ddfbadcefd6d" class="st9" d="M431.7,431.8l0.9,0c1-0.1,2.1-0.8,3.6-2.2
		c1.4-1.4,2.6-3.5,3.6-6.3c0,0.1,0,0.8,0,2.1c0,1.3,0.2,2.3,0.4,3c0.3,0.7,0.5,1.2,0.7,1.6c0.2,0.3,0.3,0.5,0.3,0.5s0.1,0.1,0.2,0.3
		c0.1,0.2,0.6,0.3,1.4,0.4c0.8,0.1,1.5,0,2.2-0.2c0.7-0.3,1.1-0.5,1.4-0.7c0.2-0.2,0.7-0.6,1.4-1.3c0.7-0.7,1.2-1.3,1.6-1.8
		c0.4-0.5,0.8-1.1,1.2-1.8c0.4-0.7,0.7-1.6,0.9-2.6c-0.1,0-0.5,0.9-1.2,2.7c-0.6,1.8-1,3.3-0.9,4.4c0,1.1,0.2,2,0.5,2.6
		c0.3,0.6,0.7,0.9,1.2,1c0.4,0,0.8,0,1,0c0.2-0.1,0.4-0.1,0.5-0.2c0.1-0.1,0.3-0.2,0.7-0.6c0.4-0.3,0.8-1.4,1-3.2
		c0.2-1.8,0.3-3.2,0.2-4.1c-0.1-0.9-0.3-1.8-0.8-2.6c0,0-0.1,0.3-0.1,0.9c-0.1,0.6,0.2,1.1,0.6,1.6c0.5,0.5,0.9,0.8,1.4,1
		c0.5,0.2,0.9,0.3,1.2,0.4c0.3,0.1,0.8,0.1,1.4,0.1c0.6,0,1.1-0.2,1.7-0.5c0.5-0.3,1.1-0.8,1.8-1.5c0.7-0.7,1.8-2.1,3.1-4
		c1.4-2,2.5-4.7,3.2-8.2c0,0.1-0.5,1.4-1.4,4c-0.9,2.6-1.5,5-1.8,7.2c-0.3,2.2,0,4.2,0.6,5.9c0.9,0.2,2.1-0.4,3.8-1.8
		c1.6-1.4,3-2.7,4-3.8c1-1.1,1.5-2.1,1.6-3.1c-0.5,0.1-0.7,0.2-0.7,0.3c-0.2,0.2-0.7,1.1-1.5,2.9c-0.8,1.7-1.2,3.3-1.3,4.6
		c-0.1,1.3-0.1,2.4-0.2,3.1s0.3,1.4,0.8,1.8c0.5,0.4,1.3,0.5,2.2,0.4c0.9-0.2,1.8-0.8,2.5-1.8c0.8-1.1,1.3-2.1,1.6-3.1
		c0.3-1,0.5-2.1,0.7-3.3s0-2-0.2-2.7c-0.2-0.6-0.5-1.1-0.8-1.5c-0.3-0.4-0.6-0.6-1-0.7c-0.4-0.1-0.6-0.2-0.7-0.2c-0.1,0-0.1,0-0.2,0
		c0,0-0.2,0.1-0.5,0.3c-0.3,0.2-0.5,0.4-0.4,0.6c0,0.2,0.2,0.5,0.6,0.8c0.3,0.4,0.5,0.6,0.6,0.6c0,0,0.3,0.2,0.9,0.5
		c0.6,0.4,2,0.7,4.2,1c2.2,0.3,4.6-0.1,7.2-1.5c2.6-1.3,5-3,7.2-5.1c-0.2-0.1-1,0.4-2.5,1.4c-1.5,1-2.6,2.4-3.4,4.2
		c-0.8,1.8-1.2,3.5-1.2,5.3c1.8,1,4.9-2.7,9.3-11.2c0,0.1-0.4,2.3-1.4,6.6c-0.9,4.3-1.7,7.7-2.2,10.1s-1.1,4.4-1.7,5.9
		c-0.6,1.5-1.2,2.7-1.8,3.5c-0.6,0.8-1.4,1.3-2.6,1.5c-0.4-0.8-0.5-1.1-0.5-1.2c0,0,0-0.4,0-1c-0.1-0.7,0.2-1.7,0.8-3.2
		c0.6-1.4,2.1-3.2,4.7-5.3c2.6-2.1,5.2-4.2,7.8-6.2c2.7-2,5.2-5,7.7-8.9c-0.3,0.2-0.5,0.3-0.5,0.4c-0.1,0.2-0.3,0.4-0.4,0.6
		c-0.2,0.2-0.3,2.5-0.4,7c0.8,1,3.8-2.7,9.1-11c-0.1,0.2-0.4,1.5-0.9,3.8c-0.5,2.3-1.1,5.1-1.7,8.5c-0.6,3.4-1.2,6.1-1.9,8.2
		c-0.6,2.1-1.3,3.8-2.1,5.1c-0.8,1.3-1.4,2.1-2,2.6c-0.5,0.5-1,0.8-1.3,1c-0.4,0.2-0.8,0.2-1.3,0.2c-0.5-0.5-0.1-2.4,1.2-5.5
		c1.3-3.2,3.2-6,5.6-8.5c2.4-2.5,3.9-4.1,4.4-4.5"/>
	<circle id="STROKE_86279f43-9ad9-4ad0-802c-e6df528316da" class="st10" cx="442.2" cy="413" r="1.5"/>
	<path id="STROKE_99e2e78b-b54e-4420-a404-71321e9f0565" class="st8" d="M402.1,523.8L402.1,523.8l0.2,0.3c0,0,0,0.2,0.1,0.7
		c0,0.5,0.1,1.6,0.1,3.4c0,1.8,0,4-0.1,6.4c-0.1,2.5-0.2,4.9-0.4,7.2c-0.2,2.3-0.3,4-0.3,5.2c-0.1,1.2-0.1,2.1,0,2.7
		c0,0.6,0.3,1.4,0.7,2.4c0.2,0.1,1,0.1,2.4,0.1c1.4,0,2.5,0,3.4,0.1c0.9,0,1.7,0,2.6-0.1c0.8-0.1,2.1-0.4,3.9-1
		c1.8-0.6,2.7-0.9,2.8-1"/>
	<path id="STROKE_f9e4b2eb-52e2-4a09-86bc-4346c5067dbd" class="st9" d="M431.6,541.8c-0.5-0.1-0.8-0.1-0.8-0.1
		c-0.4,0-0.7,0-0.9,0.1c-0.2,0-0.4,0.1-0.6,0.2c-0.2,0.1-0.5,0.4-0.9,0.9s-0.7,0.8-0.9,1c-0.2,0.2-0.6,1-1.3,2.2
		c-0.7,1.2-1.1,2.4-1.3,3.6c-0.2,1.2-0.2,1.9,0,2.3c0.2,0.4,0.6,0.7,1.2,0.8c0.6,0.1,1.3,0.2,2,0.2c0.7,0,1.5-0.4,2.3-1
		c0.8-0.7,1.6-1.3,2.2-2c0.6-0.7,1.1-1.6,1.4-2.9c0.3-1.2,0.4-2.2,0.4-2.9c0-0.7-0.2-1.3-0.4-1.8c-0.2-0.5-0.6-0.8-1-1
		c-0.4-0.2-1-0.2-1.7,0.1c0,0.2,0,0.3,0,0.3c0.5,0.2,0.7,0.3,0.7,0.3c0.7,0.1,2.2,0.4,4.3,0.8c2.1,0.4,4.1,0.5,6.1,0.4
		c2-0.1,3.4-0.3,4.2-0.6c0.8-0.3,1.4-0.5,1.9-0.7c0.5-0.2,1-0.6,1.4-1.3c-0.1,0.1-0.8,0.4-1.9,0.9c-1.2,0.5-2.1,1-2.7,1.5
		c-0.7,0.5-1.3,1.1-1.8,1.5c-0.5,0.5-0.8,0.9-0.8,1.3c0,0.4,0,0.8,0.1,1.1c0.1,0.4,0.3,0.6,0.5,0.8c0.2,0.1,0.5,0.2,0.9,0.3
		c0.4,0.1,0.7,0.2,1.1,0.2c0.4,0.1,1-0.1,1.9-0.5c0.9-0.4,1.5-0.7,1.9-1c0.4-0.3,1.1-1,2.1-2.1c1-1.1,1.5-3.1,1.6-6.1
		c-0.3-0.1-0.5,0.5-0.5,1.6c-0.1,1.1-0.1,2.4-0.1,3.8s0,3.5,0,6.3c0.1,2.8,0,5.1-0.1,6.9c-0.1,1.8-0.4,3.4-0.9,4.7
		c-0.5,1.3-1,2.3-1.6,2.9c-0.6,0.6-1.3,0.9-2,0.9c-0.1,0-0.2-0.3-0.3-1c-0.1-0.6,0-1.5,0.3-2.4c0.3-1,1-2.1,2.1-3.4
		c1.1-1.3,2-2.3,2.7-3.1c0.7-0.8,1.6-1.8,2.6-2.9c1-1.1,1.8-2.1,2.6-2.9c0.7-0.8,2.7-3.4,6-8c-0.1,0-0.3,0.4-0.8,1
		c-0.5,0.6-0.8,1.6-0.9,3s-0.1,2.4,0,3.1c0.1,0.8,0.2,1.3,0.4,1.7c0.2,0.4,0.5,0.7,0.9,0.9c0.4,0.3,1,0.3,2,0.1
		c1-0.2,1.9-0.7,2.9-1.5c0.9-0.8,2.1-1.8,3.4-3.1c1.4-1.3,2.7-2.5,4-3.7c1.3-1.2,3.6-2.1,6.7-2.6c-0.8,0.2-1.8,0.6-2.9,1
		c-1.1,0.5-2.1,1.1-3,1.8c-0.9,0.8-1.5,1.4-1.9,2c-0.4,0.6-0.7,1.5-0.9,2.9c-0.3,1.4,0,2.3,0.9,2.6c0.9,0.4,2,0.7,3.3,0.8
		c1.3,0.2,2.9,0.2,4.5,0.1c1.7-0.1,3.4-0.5,5.3-1.2s3.1-1.4,3.9-2.1c0.7-0.7,1.2-1.3,1.4-1.6"/>
	<circle id="STROKE_48a45802-0336-4df6-b36a-ac5b6c4cc7c3" class="st10" cx="461.4" cy="529.8" r="1.5"/>
	<path id="STROKE_7fe617fc-9835-4cfe-a216-47664988784b_1_" class="st9" d="M11.2,344.1c0.4-0.2,0.8-1,1.2-2.5
		c0.4-1.5,0.7-3.5,0.7-5.8c0-0.1,0,1.3-0.1,4.2c-0.1,2.9,0.4,9.1,1.5,18.4c0,0.1-0.2-1.4-0.6-4.4c-0.4-3-0.6-5.6-0.7-8
		c-0.1-2.4-0.1-4.1-0.1-5.4c0-1.2,0.2-2.5,0.6-3.9c0.4-1.4,0.8-2.6,1.4-3.6c0.6-1,1-1.7,1.4-2.1c0.4-0.4,0.7-0.6,1.1-0.7
		c0.3-0.1,0.6-0.2,0.8-0.1c0.2,0,0.4,0.1,0.6,0.2c0.1,0.1,0.2,0.2,0.3,0.3c0,0.1,0.2,0.2,0.3,0.5c0.2,0.2,0.4,1,0.7,2.3
		s0.5,2.4,0.5,3.5c0.1,1,0,1.9-0.1,2.8c-0.2,0.8-0.5,1.6-1.1,2.3c-0.6,0.7-1.2,1.3-1.8,1.8c-0.6,0.5-1.9,0.7-4,0.6l0-0.1
		c0.3-0.2,1.3-0.3,2.8-0.5c1.5-0.1,2.9-0.4,4.3-0.9c1.3-0.4,2.6-1.1,3.8-2c1.2-0.9,2.3-2.1,3.4-3.5c1-1.4,2-3.2,3-5.2
		c0.9-2,1.3-6.9,1-14.7c-0.2-0.1-0.4,1.7-0.5,5.5c-0.2,3.8-0.2,7.5,0,11.2c0.2,3.7,0.5,7,1.1,9.9c0,0,0.2-0.8,0.5-2.6
		c0.3-1.7,0.7-3.4,1.2-4.8c0.5-1.5,1-2.5,1.4-3.3c0.4-0.7,0.7-1.3,1-1.6c0.3-0.4,0.8-0.7,1.7-0.9c0.3,0.3,0.5,1.4,0.5,3.1
		c0,1.8,0.1,3.4,0.4,4.8c0.2,1.5,0.4,2.5,0.6,3.3c0.2,0.7,0.4,1.2,0.6,1.6c0.2,0.3,0.4,0.5,0.6,0.6c0.2,0.1,0.4,0.1,0.6,0
		c0.2-0.1,0.4-0.2,0.6-0.3c0.2-0.1,0.3-0.3,0.5-0.4c0.2-0.2,0.7-1.1,1.5-2.8c0.9-1.7,1.7-3.8,2.7-6.2c0,0.1-0.1,0.8-0.3,1.9
		c-0.2,1.2-0.4,2.2-0.3,3.1c0,0.9,0,1.5,0,1.8c0,0.3,0,0.6,0.1,0.9c0.1,0.3,0.2,0.5,0.4,0.7c0.2,0.2,0.4,0.3,0.7,0.5
		c0.3,0.1,0.7,0.2,1.2,0c0.5-0.1,0.9-0.3,1.2-0.6c0.3-0.3,0.8-0.9,1.7-1.9c0.8-1,1.7-2.4,2.6-4.1c0.9-1.8,1.7-3.7,2.3-5.8
		c0.6-2.1,1.1-4.2,1.4-6.4c0.3-2.2,0.5-3.9,0.6-5.3c0.1-1.4,0.1-2.4,0.1-3.1c0-0.7,0-1.2-0.1-1.4c-0.1-0.2-0.3-0.4-0.5-0.4
		c-0.2,0-0.5,0-0.7,0.2c-0.2,0.2-0.6,0.9-1,2.2c-0.5,1.3-0.8,3-1.1,5.2c-0.3,2.1-0.5,4-0.7,5.7c-0.2,1.6-0.3,3.5-0.4,5.6
		c0,2.1-0.1,3.7,0,4.8c0,1.1,0.1,2,0.1,2.6c0.1,0.6,0.2,1.4,0.5,2.4c0.3,1,0.7,1.8,1.2,2.5c0.5,0.7,0.9,1.2,1.5,1.4
		c0.5,0.2,1.1,0.4,1.7,0.4c0.6,0,1.6-0.7,3-2.3c1.4-1.6,3.6-5.7,6.7-12.5c0.1-0.1-0.2,0.3-0.9,1.2c-0.6,0.9-1.1,1.9-1.4,3
		c-0.3,1.1-0.4,2.1-0.5,3c0,0.9-0.1,1.5-0.1,1.8c0,0.3,0,0.8,0.1,1.3c0.1,0.5,0.3,0.9,0.7,1.1c0.4,0.2,0.7,0.3,1,0.3
		c0.2,0,0.5-0.1,0.8-0.2c0.3-0.1,0.6-0.4,0.9-0.8c0.3-0.5,0.6-1.2,0.9-2.2c0.3-1,0.5-2.2,0.6-3.6c0.1-1.4,0.1-2.5,0.1-3.3
		c0-0.8-0.1-1.5-0.4-2c-0.2-0.5-0.6-0.7-1.1-0.8c-0.1,0-0.1,0.3-0.2,0.8c-0.1,0.5,0,1.1,0.3,1.7c0.3,0.6,0.6,1.1,0.9,1.3
		c0.3,0.3,0.5,0.5,0.7,0.6c0.2,0.2,0.6,0.4,1.1,0.7c0.6,0.3,1.1,0.5,1.7,0.6c0.6,0.1,1.2,0,1.8-0.4c0.7-0.4,1.2-0.8,1.7-1.4
		c0.5-0.6,0.9-1.7,1.2-3.3c0.3-1.6,0.3-3.3-0.2-5.2c0,0.2,0,0.3,0,0.3c0,0,0,0.1-0.1,0.4c0,0.2,0.2,1.4,0.6,3.5
		c0.5,2.1,0.9,3.8,1.3,5.1c0.4,1.3,0.6,2.4,0.6,3.4c0.1,1,0,1.9-0.1,2.6c-0.1,0.7-0.4,1.4-0.9,2c-0.5,0.6-1,1-1.5,1.2
		c-0.5,0.2-0.9,0.3-1.3,0.2c-0.3-0.1-0.6-0.1-0.8-0.3c-0.2-0.1-0.4-0.3-0.6-0.6c-0.2-0.2-0.4-0.6-0.4-1c0.2-0.1,1.1-0.1,2.6,0.1
		c1.6,0.2,2.8,0.3,3.8,0.2c1-0.1,2-0.3,2.8-0.6c0.9-0.4,1.9-1,3-1.9c1.1-0.9,2.1-2,3.1-3.3c1-1.3,1.9-3.5,2.8-6.5
		c-0.1-0.1-0.5,0.6-1.2,1.9c-0.8,1.3-1.4,2.4-1.9,3.3c-0.5,0.9-0.8,1.7-0.8,2.5c-0.1,0.8-0.1,1.5-0.1,2c0,0.5,0.2,0.9,0.5,1.3
		c0.3,0.4,0.7,0.6,1.3,0.7c0.5,0.1,1.1,0.1,1.6-0.1c0.5-0.2,1.1-0.6,1.6-1.2c0.5-0.6,1-1.4,1.3-2.4c0.3-1,0.5-1.8,0.5-2.6
		c0-0.8-0.1-1.5-0.4-2.3c-0.3-0.8-0.6-1.3-0.9-1.6c-0.3-0.3-0.8-0.5-1.4-0.6c-0.1,0-0.2,0.3-0.2,0.7c0,0.4,0,0.7,0.1,0.9
		c0.1,0.2,0.3,0.4,0.6,0.7c0.3,0.2,0.7,0.4,1.1,0.6c0.4,0.1,0.8,0.2,1.1,0.2c0.4,0,0.7,0.1,1.2,0.1c0.4,0,1-0.3,1.8-0.9
		c0.8-0.7,2.2-2,4.3-4c0.1,0.1,0,2.1-0.1,5.8c-0.1,3.8-0.4,8.5-0.8,14.1c0,0,0-0.9,0.1-2.9c0.1-1.9,0.3-3.7,0.5-5.4
		c0.2-1.6,0.4-3,0.5-4.2c0.1-1.2,0.3-2.3,0.5-3.5c0.2-1.1,0.5-2.2,0.8-3.3c0.3-1,0.7-1.9,1.1-2.6c0.4-0.7,0.8-1.2,1.3-1.4
		c0.4-0.2,0.8-0.3,1.1-0.2c0.3,0.1,0.5,0.1,0.6,0.2c0.1,0.1,0.3,0.4,0.6,1c0.3,0.6,0.5,1.6,0.7,3c0.2,1.4,0.2,2.5,0.2,3.4
		c0,0.9-0.1,1.6-0.4,2.2c-0.3,0.6-0.6,1.1-1.1,1.5c-0.5,0.5-1.2,0.8-2,1c-0.9,0.2-1.6,0.3-2.3,0.2c-0.1,0,0.6,0,1.8,0
		c1.3,0,2.5-0.1,3.7-0.3c1.2-0.2,2.3-0.6,3.4-1.3c1.1-0.6,2.3-1.6,3.5-2.9c1.2-1.3,2.2-2.6,2.9-4.1c0.7-1.4,1.2-2.7,1.5-3.9
		c0.3-1.2,0.6-2.3,0.8-3.4c0.2-1.1,0.4-2.9,0.7-5.2c0.3-2.3,0.2-4.4-0.1-6.5c-0.2,0.2-0.3,0.3-0.3,0.3c0,0-0.1,2.2-0.3,6.5
		c-0.2,4.4-0.4,7.8-0.4,10.4c-0.1,2.5-0.1,4.5-0.1,5.9c0,1.4,0.2,2.6,0.5,3.5c0.2,0.1,0.4-0.1,0.7-0.6c0.3-0.5,0.8-1.6,1.4-3.3
		c0.6-1.7,1-3,1.3-3.8c0.3-0.9,0.6-1.6,0.9-2.2c0.3-0.6,0.6-1,0.8-1.3c0.2-0.3,0.4-0.5,0.6-0.7c0.2-0.2,0.4-0.3,0.6-0.3
		c0.2,0,0.3,0,0.5,0.1c0.1,0.1,0.2,0.2,0.4,0.4c0.1,0.2,0.2,0.3,0.2,0.3c0,0,0.1,1,0.2,2.8c0.1,1.9,0.2,3.4,0.2,4.4
		c0,1.1,0.2,1.9,0.4,2.5c0.2,0.6,0.4,1,0.6,1.1c0.2,0.2,0.3,0.3,0.4,0.3c0.1,0,0.4,0,0.9-0.3c0.5-0.2,1.2-0.9,2.1-2.1
		c0.9-1.2,2.5-4.2,4.9-9.1c0.1,0.1,0,0.7-0.4,2c-0.4,1.2-0.7,2.5-0.8,3.8c-0.1,1.3-0.1,2.2-0.2,2.7c0,0.6,0,0.9,0,1.2
		c0,0.2,0.2,0.5,0.6,0.7s1.1-0.3,2-1.7c0.9-1.4,1.6-2.8,2.1-4.2c0.5-1.4,0.8-2.7,1-3.9c0.2-1.2,0.4-2.2,0.5-3c0,0.1,0,2.1,0,6.1
		c0,3.9,0,7.1,0,9.7c0,2.6-0.2,5.1-0.4,7.6c-0.3,2.5-0.7,4.8-1.1,7c-0.5,2.2-0.9,4-1.3,5.3c-0.4,1.4-0.8,2.5-1.1,3.3
		c-0.3,0.8-0.6,1.4-0.8,1.9c-0.2,0.4-0.8,0.7-1.7,0.8c-0.4-0.2-0.6-1.7-0.8-4.3c-0.2-2.6-0.2-4.9-0.2-6.9c0.1-1.9,0.2-3.6,0.5-4.8
		c0.2-1.3,0.5-2.4,0.9-3.4c0.3-1,0.7-1.7,1.1-2.3c0.4-0.5,0.9-1,1.6-1.4c0.7-0.4,1.5-0.6,2.6-0.7c1.1,0,2.2-0.1,3.3-0.1
		c1.1,0,1.9-0.1,2.5-0.3c0.5-0.2,0.9-0.3,1.1-0.5"/>
	<path id="STROKE_623fbb60-b528-4292-91ff-7789963bd2d8" class="st9" d="M45.5,327.7c0,0-0.3,0.1-0.9,0.2l-0.2,0.2"/>
	<path id="STROKE_74ed9e74-9eba-4162-96b1-d7131d6dac9a" class="st8" d="M652.8,314.1C652.8,314.1,652.8,314.1,652.8,314.1
		c0.1,0,0.1,0,0.2-0.1c0.1,0,0.1-0.1,0.2-0.2c0-0.1,0.2-0.3,0.4-0.7c0.2-0.4,0.7-1.8,1.6-4.3c0.9-2.5,1.6-5,2.3-7.5
		c0.7-2.5,1.1-4.4,1.4-5.6c0.3-1.2,0.6-2.8,1-4.8c0.4-2,0.9-4.1,1.5-6.2c0.6-2.1,1-3.7,1.4-4.7c0.4-1,0.6-1.7,0.8-2.1
		c0.2-0.4,0.4-0.7,0.8-1.1c0.3-0.3,0.9,1.5,1.6,5.4c0.7,3.9,1.2,7,1.6,9.4c0.4,2.3,0.7,4.1,0.8,5.2c0.2,1.2,0.5,3,0.8,5.4
		c0.4,2.4,0.6,4.3,0.8,5.6c0.2,1.3,0.4,2.4,0.5,3.2c0.1,0.8,0.6,2.6,1.3,5.3l0,0l0.1-0.2"/>
	<path id="STROKE_f8a9c472-6966-4aad-b9c5-28c62c44ebf0" class="st8" d="M659.7,300.2c0.4,0.1,1.5-0.3,3.5-0.9
		c1.9-0.7,3.6-1.4,4.8-2c1.3-0.7,2.1-1.1,2.5-1.3"/>
	<path id="STROKE_dee8ef7e-fcac-4b61-8766-5d1882923a3e" class="st9" d="M679,306.5c0,0,0.1,1.4,0.2,4.1c0.2,2.7,0.3,5.1,0.5,7.3
		c0.1,2.1,0.4,4.3,0.7,6.4c0.1-0.2,0-1.7-0.4-4.7s-0.7-5.5-1-7.6c-0.3-2.1-0.4-3.8-0.4-5c0-1.2,0-2.1,0.1-2.7
		c0.1-0.6,0.2-1.2,0.4-1.7c0.2-0.5,0.5-0.9,1-1.2c0.4-0.3,1-0.3,1.7-0.1c0.7,0.2,1.5,0.7,2.3,1.5c0.8,0.8,1.4,1.6,1.8,2.6
		c0.4,1,0.5,1.9,0.6,2.8c0,0.8-0.1,1.6-0.3,2.2c-0.2,0.6-0.5,1.2-1,1.7c-0.5,0.5-1.3,0.8-2.4,0.9c-1.1,0.1-1.9,0.1-2.5-0.1
		c-0.6-0.2-0.9-0.3-1.1-0.4"/>
	<path id="STROKE_77faac9c-c479-46f8-a674-546ad9da6845" class="st9" d="M692.7,305.8c0,0-0.2-0.1-0.6-0.1
		c-0.3,0.1,0.1,6.2,1.4,18.3c0-0.2,0-2,0-5.5c0-3.4,0-6.1-0.1-8.1c0-2,0.1-3.5,0.3-4.7c0.2-1.2,0.4-2.1,0.6-2.6
		c0.1-0.6,0.4-1.1,0.7-1.5c0.4-0.4,0.6-0.7,0.9-0.9c0.2-0.1,0.5-0.2,0.8-0.2c0.3,0,0.7,0.1,1.1,0.4c0.5,0.3,1,1.1,1.7,2.6
		c0.6,1.4,1.1,2.7,1.3,3.7c0.2,1,0.3,1.8,0.4,2.4c0,0.6,0,1.1-0.1,1.5c-0.1,0.4-0.4,0.8-0.9,1.2c-0.5,0.3-1.1,0.5-1.8,0.6
		c-0.7,0.1-1.4,0.1-2.2-0.1c-0.7-0.1-1.4-0.6-1.9-1.5c0-0.2,0.6-0.1,1.8,0.3c1.2,0.3,2.2,0.6,3.2,0.8c1,0.2,1.8,0.3,2.3,0.3
		c0.5,0,1.2,0,2-0.1c0.8-0.1,1.6-0.4,2.5-0.9c0.9-0.5,1.7-1.5,2.5-3c0.8-1.5,1.5-2.8,2-3.9c0.5-1.1,0.9-3,1.4-5.7
		c0.4-2.7,0.8-4.8,0.9-6.4c0.2-1.6,0.3-2.8,0.4-3.8c0.1-1,0-2.4-0.2-4.3c0,0-0.1,0-0.2,0c-0.1,0-0.2,0-0.2,0c0,0,0,0-0.1,0
		c-0.1,0-0.3,1.2-0.8,3.5c-0.5,2.3-0.8,4.6-0.9,6.8c-0.2,2.2-0.3,3.9-0.3,5c-0.1,1.1-0.1,2.4-0.2,3.9c0,1.5,0,2.7,0,3.7
		c0.1,1,0.2,1.8,0.5,2.6c0.3,0.8,0.5,1.3,0.8,1.7c0.3,0.4,0.6,0.6,0.9,0.7c0.3,0.1,0.7,0.1,1-0.1c0.3-0.1,0.6-0.3,0.9-0.6
		c0.3-0.3,0.9-1.1,2-2.6c1.1-1.5,2.1-3.4,3.2-5.9c0-0.1-0.1,0.3-0.4,1.2c-0.3,0.8-0.5,1.9-0.6,3.1c-0.1,1.2-0.2,2.1-0.1,2.7
		c0.1,0.6,0.2,1.2,0.4,1.6c0.2,0.5,0.6,0.8,1.2,1c0.6,0.2,1.1,0.3,1.5,0.3c0.5,0,1.4-0.5,2.9-1.6c1.5-1.1,2.9-2.3,4.2-3.7
		c1.4-1.3,2.4-2.8,3-4.3c-0.2-0.2-0.7,0-1.6,0.5c-0.9,0.5-1.6,1.2-2.3,2.1c-0.6,0.9-1.1,1.8-1.2,2.6c-0.2,0.8-0.3,1.4-0.3,1.7
		c0,0.3,0.1,0.7,0.3,1.1c0.2,0.4,0.7,0.7,1.4,0.8s1.3,0.2,1.8,0.2c0.5,0,1.3-0.4,2.3-1c1-0.6,2.2-1.4,3.4-2.3
		c1.2-0.9,2.3-1.8,3.2-2.5c0.9-0.7,2.4-1.7,4.5-2.9c-0.1,0.1-0.3,0.3-0.6,0.6s-0.8,0.6-1.3,0.8c-0.6,0.2-1,0.3-1.3,0.4
		c-0.3,0.1-0.6,0.1-0.7,0.2c-0.2,0.1-0.3,0.1-0.5,0.2c-0.2,0.1-0.4,0.2-0.6,0.3c-0.2,0.1-0.3,0.1-0.4,0.2c0,0-0.3,0.2-0.8,0.4
		c-0.5,0.3-1,0.7-1.4,1.2c-0.4,0.5-0.7,1.1-0.9,1.9c-0.2,0.8-0.2,1.4,0,1.9c0.2,0.5,0.4,0.7,0.5,0.8c0.1,0.1,0.6,0.1,1.3,0.3
		c0.7,0.1,1.5,0,2.3-0.5c0.8-0.4,1.8-1.3,3-2.8c1.2-1.4,2.3-2.9,3.3-4.3c1-1.4,1.9-3.5,2.6-6.3c0.8-2.7,1.2-6.4,1.4-10.9
		c-0.3,0.2-0.7,0.8-1,1.9c-0.4,1-0.6,1.9-0.7,2.5c-0.1,0.7-0.2,2-0.3,4.1c-0.1,2.1-0.1,3.8-0.2,5.1c0,1.3,0.1,2.5,0.4,3.6
		c0.3,1.1,0.5,1.9,0.7,2.5c0.2,0.5,0.4,1,0.7,1.5c0.3,0.4,0.6,0.7,1,0.9c0.4,0.1,0.7,0.2,0.8,0.3"/>
	<path id="STROKE_58266112-c374-46ac-b59f-3907760d3710" class="st9" d="M721.6,296.1c0.1-0.2,0.2-0.4,0.3-0.6s0.2-0.3,0.3-0.5"/>
	<path id="STROKE_c7c3119f-26bc-4436-8899-485f5ae03001" class="st9" d="M645.6,336.6c0-0.1,0-0.2,0.1-0.4c0.1,0.1,0.1,0.2,0.1,0.5
		c0,0.3,0,0.8,0,1.6c0,0.8-0.1,2-0.2,3.6c-0.1,1.6-0.2,3.1-0.3,4.5c0,1.4-0.1,2.8-0.2,4.3c-0.1,1.5-0.3,7.5-0.7,18.1l0,0
		c-0.1-0.1-0.1-2.8,0-8.1c0.1-5.3,0.3-9.7,0.6-13.3c0.3-3.6,0.6-6.2,0.9-7.9c0.3-1.7,0.6-3.1,0.8-4.1c0.3-1.1,0.6-1.9,0.8-2.4
		c0.2-0.5,0.5-0.9,0.7-1.2s0.4-0.4,0.6-0.5c0.2-0.1,0.4-0.1,0.5-0.1c0.1,0,0.2,0,0.3,0c0.1,0,0.2,0,0.3,0.1c0.1,0,0.7,0.6,1.7,1.9
		c1,1.2,1.8,2.5,2.6,3.7c0.7,1.3,1.3,2.7,1.6,4.2c0.3,1.5,0.5,2.8,0.6,3.9c0.1,1-0.1,2-0.3,2.9c-0.3,0.9-0.6,1.6-0.9,2.2
		c-0.3,0.6-0.8,1.2-1.4,1.9c-0.6,0.7-1.3,1.3-2.2,1.9c-0.8,0.6-1.6,1-2.4,1.2c-0.8,0.3-1.4,0.4-2,0.4c-0.6,0-1-0.1-1.4-0.2
		c-0.4-0.1-0.7-0.5-1.1-1.1c-0.3-0.6-0.5-1-0.6-1.3"/>
	<path id="STROKE_126d3523-ed33-4e13-afbb-9de962812148" class="st9" d="M655.3,364.7L655.3,364.7c0.5-0.4,1.6-1.1,3.1-2.3
		c1.5-1.2,2.7-2.2,3.6-3.1c0.9-0.9,1.6-1.6,2.1-2.1c0.5-0.5,1.2-1.3,2-2.5c0.8-1.1,1.8-2.8,2.8-5c1-2.2,1.8-4.6,2.4-7.3
		c0.6-2.6,1-4.8,1.1-6.4c0.1-1.6,0.2-2.8,0.2-3.6c0-0.8,0.1-1.4,0.1-1.9c0-0.5,0-0.8-0.1-1c-0.1-0.2-0.2-0.4-0.4-0.6
		c-0.2-0.1-0.3-0.2-0.5-0.2c-0.2,0-0.4,0-0.7,0.2c-0.3,0.1-0.6,0.4-0.9,0.8c-0.3,0.4-0.7,1.8-1.1,4.3c-0.4,2.5-0.7,5.1-1,7.9
		c-0.2,2.8-0.4,4.9-0.5,6.3c-0.1,1.4-0.2,2.4-0.2,3.1c0,0.7-0.1,2.2-0.4,4.6c-0.3,2.4-0.8,4.9-1.4,7.6c-0.1-0.1,0.2-0.9,1-2.2
		c0.8-1.3,1.4-2.4,2-3.1c0.5-0.7,0.9-1.2,1.1-1.5c0.2-0.3,0.6-0.7,1.2-1.2c0.6-0.5,1-0.9,1.4-1.1c0.3-0.2,0.6-0.3,0.7-0.4
		c0.2-0.1,0.5,0,0.9,0.1c0.2,0.3,0.2,1.3-0.2,3.1c-0.4,1.8-0.5,3.6-0.3,5.6c0.3,0.1,0.4,0.2,0.5,0.2c0.1,0,0.4-0.1,1-0.3
		c0.6-0.3,1.2-0.6,1.9-1.1c0.7-0.5,1.4-1.4,2.1-2.6c0.7-1.2,1.4-2.6,2-4.1c0,0-0.2,0.5-0.5,1.4c-0.3,0.9-0.4,1.8-0.3,2.6
		c0.1,0.8,0.2,1.3,0.3,1.5c0.1,0.2,0.2,0.4,0.3,0.5c0.1,0.1,0.4,0.3,0.9,0.6c0.5,0.3,1,0.3,1.7,0.1c0.6-0.2,1.1-0.5,1.5-0.8
		c0.4-0.3,0.7-0.6,1-1c0.3-0.3,0.6-0.6,0.8-0.8c0.2-0.2,0.7-0.8,1.4-1.7c0.7-0.9,1.3-1.6,1.6-2.1c0.4-0.5,1.1-1.6,2.2-3.5
		c1.1-1.9,2.1-4.2,3.2-7c1-2.8,1.8-5.2,2.4-7c0.5-1.9,0.7-3.5,0.6-4.9c-0.1,0-0.3-0.1-0.6-0.1c-0.3,0-0.9,0.6-1.7,1.8
		c-0.8,1.2-1.6,2.9-2.4,5.1c-0.8,2.2-1.5,4.5-2.2,7c-0.7,2.5-1.1,4.6-1.4,6.3c-0.2,1.7-0.3,3.1-0.3,4c0,0.9,0.1,1.7,0.3,2.2
		c0.2,0.6,0.6,0.9,1.2,1.1c0.5,0.1,1.4-0.1,2.6-0.9c1.2-0.7,2.5-1.9,4-3.5c1.5-1.6,2.7-3.8,3.8-6.4c-0.1-0.1-0.5,0.4-1.3,1.5
		c-0.8,1.1-1.4,2.2-1.8,3.4c-0.4,1.2-0.7,2.2-0.7,3c-0.1,0.8-0.1,1.4-0.1,1.8c0,0.4,0.1,0.8,0.4,1.1c0.3,0.3,0.5,0.5,0.7,0.6
		c0.2,0.1,0.3,0.1,0.5,0.2c0.1,0,0.2,0,0.3,0.1c0.1,0,0.2,0,0.3,0c0.1,0,0.3,0,0.4,0c0.1,0,0.4-0.2,0.8-0.4c0.4-0.3,0.7-1.1,1-2.5
		c0.3-1.4,0.4-2.7,0.5-4.1c0.1-1.3,0-3.1-0.2-5.3c-0.4-0.1-0.5-0.2-0.5-0.2c-0.1-0.1-0.2,0.4-0.3,1.3c-0.1,0.9,0.1,1.9,0.6,2.8
		c0.5,1,1,1.7,1.4,2.4c0.4,0.6,1,1.1,1.8,1.6c0.8,0.4,1.5,0.6,2.3,0.6c0.7,0,1.3,0,1.5-0.1c0.3,0,0.7-0.4,1.3-1.2
		c0.6-0.7,1.2-3.3,1.7-7.8c0,0,0.1,0.9,0.1,2.5c0.1,1.6,0.1,3,0.1,4.2c0,1.2-0.2,2.2-0.5,3c-0.3,0.8-0.6,1.4-0.8,1.8
		c-0.2,0.4-0.5,0.7-0.7,0.9c-0.2,0.2-0.5,0.3-0.7,0.4c-0.3,0.1-0.7,0-1.2-0.1c-0.5-0.1-1-0.8-1.4-1.9c0.2-0.1,0.7,0,1.5,0.3
		c0.8,0.3,1.7,0.6,2.7,0.7c1,0.2,2,0.1,3-0.2c1-0.3,1.7-0.5,2.1-0.7c0.4-0.2,0.9-0.5,1.3-0.7c0.5-0.3,1.2-0.8,2-1.5
		c0.9-0.7,1.6-1.5,2.2-2.4c0.6-0.9,1-1.9,1.1-2.9c0,0-0.2-0.1-0.5-0.1c-0.4,0-0.8,0.2-1.4,0.6c-0.5,0.4-1,0.9-1.5,1.5
		c-0.5,0.5-0.8,1-1,1.3c-0.2,0.3-0.4,0.6-0.5,1c-0.1,0.3-0.3,0.6-0.3,0.9c-0.1,0.3-0.1,0.6-0.1,0.8c0,0.2,0,0.6,0.1,1
		c0.1,0.4,0.2,0.7,0.5,0.9c0.2,0.2,0.6,0.3,1,0.4c0.5,0.1,1.1,0.1,2-0.1c0.9-0.2,1.6-0.5,2.2-1c0.6-0.5,1.1-1.1,1.4-1.8
		c0.3-0.8,0.5-1.4,0.5-2c0.1-0.6-0.2-1.2-0.9-2c-0.7-0.8-1.4-1.4-2.2-1.8c-0.1,0.2-0.1,0.3-0.1,0.4c0,0,0,0.3,0.2,0.8
		c0.2,0.5,0.4,1,0.9,1.5c0.4,0.5,0.8,0.8,1.2,1.1c0.3,0.2,0.8,0.5,1.3,0.7c0.5,0.2,1.1,0.3,1.8,0.4c0.7,0,1.4,0,2.1,0
		c0.7-0.1,1.4-0.4,2.1-0.9c0.7-0.5,1.3-1.1,1.7-1.7c0.4-0.6,0.7-1.3,0.9-2.2c-0.1,0.1-0.6,1.4-1.5,3.9c-0.9,2.5-1.8,7.7-2.5,15.5
		c-0.1-0.1,0.1-1.5,0.5-4.1c0.4-2.6,1-5.1,1.8-7.6c0.8-2.4,1.4-4.3,1.9-5.6c0.5-1.3,0.8-2.1,1.1-2.7c0.3-0.5,0.6-0.9,0.9-1.1
		c0.3-0.2,0.6-0.3,0.9-0.3c0.3,0,0.6,0.1,1,0.4c0.4,0.3,0.7,0.6,0.9,1c0.2,0.4,0.4,1.1,0.6,2c0.2,0.9,0.2,1.9,0.2,2.8
		s-0.3,1.8-0.8,2.8c-0.5,1-2.7,1.3-6.8,1.1c0.1,0,0.8,0.1,2.1,0.3c1.3,0.2,2.4,0.3,3.4,0.4c1,0,1.9-0.1,2.8-0.4
		c0.9-0.3,1.7-0.8,2.3-1.4c0.7-0.7,1.3-1.4,1.9-2.1c0.6-0.8,2.9-7.5,7-20.4c0,0.3,0,0.4-0.1,0.4c0,0-0.5,1-1.3,3.1s-1.7,4.8-2.7,8.2
		c-1,3.4-1.7,7.5-2.2,12.3c0.2,0.2,0.7-0.4,1.4-1.9c0.7-1.5,1.6-3,2.6-4.7c1.1-1.6,1.9-3,2.6-4c0.7-1.1,1.7-1.9,2.9-2.5
		c0.3,0,0.2,0.9-0.4,2.5c-0.6,1.6-1,3-1.4,4.2s-0.6,2.1-0.6,2.7c0,0.6-0.1,1-0.1,1.2c0,0.2,0.2,0.4,0.5,0.4s0.6,0,0.9-0.1
		c0.3-0.1,0.7-0.4,1.2-0.7c0.5-0.3,2.1-3,5-8c-0.1,0.1-0.4,0.9-0.8,2.3c-0.4,1.4-0.6,3.3-0.4,5.5c0.2,0.1,0.3,0.1,0.4,0
		c0.1,0,0.7-1.2,1.9-3.5c1.2-2.3,2.9-4.6,5.1-7c0.1,0.2,0.1,1.3,0,3.4c-0.1,2.1-0.5,4.7-1.4,7.7c-0.8,3-1.7,5.6-2.6,8
		c-0.9,2.4-1.8,4.4-2.7,5.9s-1.6,2.8-2.1,3.6s-1,1.5-1.5,2c-0.5,0.5-0.9,0.9-1.1,1c-0.2,0.1-0.5,0.3-0.8,0.4
		c-0.3,0.1-0.6,0.1-0.7-0.1c-0.2-0.1-0.3-0.4-0.3-0.9c-0.1-0.5,0.1-1.1,0.4-2c0.3-0.9,0.7-1.6,1.2-2.3c0.4-0.6,1-1.4,1.8-2.3
		c0.8-0.9,1.8-2,3.2-3.4c1.4-1.3,2.7-2.6,3.9-3.7c1.2-1.2,3.2-2.2,5.9-3.1c2.7-0.9,4.2-1.4,4.4-1.5"/>
	<circle id="STROKE_2b0ac575-0e2c-433d-b7b7-31fcbb308d97" class="st10" cx="680.7" cy="347.2" r="1.5"/>
	<path id="STROKE_790282c7-2bce-4909-b1fd-aa8c0821b357" class="st9" d="M61.1,21C61.2,21.1,61.2,21.1,61.1,21
		c0,0.1-0.2,2.2-0.6,6.3c-0.4,4.2-0.4,8.4,0,12.7l0.2,0.2"/>
	<path id="STROKE_f0833c14-b15d-4b2c-ad19-26809da0f2ef" class="st9" d="M50.6,23.2c0,0.1,0,0.2,0,0.3c0.4,0.7,3.5,0.2,9.3-1.3
		c5.8-1.6,8.8-2.4,9.1-2.5"/>
	<path id="STROKE_b9c33ad8-1098-43d1-862d-8e1b530df61a" class="st9" d="M52.4,43.6c0,0-0.1,0.3-0.2,0.8c0.6,0.3,1.9-0.1,4-1.3
		c2.1-1.2,4.4-2.3,6.8-3.2s3.8-1.5,4.2-1.6"/>
	<path id="STROKE_8fa69812-7fe2-490b-a8a6-44efe82d0b68" class="st9" d="M70.6,29.7l0.1-0.1c0.1,0.3,0.2,4.6,0.3,12.6
		c0.2,0.2,0.6-0.8,1.3-2.8c0.7-2,1.2-3.7,1.7-5c0.4-1.3,0.8-2.2,1-2.7c0.3-0.5,0.5-0.8,0.6-0.9c0.1-0.1,0.4-0.2,0.7-0.2
		c0.3,0,0.5-0.1,0.5-0.1c0,0,0.2,0.8,0.6,2.4c0.4,1.6,0.6,2.8,0.6,3.7c0,0.9,0.2,1.6,0.5,2.1c0.3,0.5,0.6,0.9,0.8,1
		c0.3,0.2,0.5,0.2,0.7,0.3c0.2,0,0.4,0,0.5,0c0.2,0,0.4-0.1,0.6-0.3c0.2-0.2,0.5-0.4,0.7-0.7c0.3-0.3,0.5-0.6,0.6-0.8
		c0.1-0.2,0.3-0.4,0.3-0.6c0.1-0.2,0.2-0.5,0.4-1c0.2-0.5,0.4-1,0.5-1.6c0.1-0.5,0.5-1.9,1.2-4l0.1,0c0.2,0.7,0.2,1.1,0.3,1.2
		c0,0.1-0.1,5.2-0.2,15.3c0,0,0.1-1.8,0.1-5.4c0-3.6,0.1-6.5,0.1-8.6c0.1-2.1,0.3-3.8,0.5-5c0.3-1.2,0.5-2,0.8-2.4
		c0.2-0.4,0.5-0.7,0.8-1c0.3-0.3,0.7-0.4,1.2-0.4c0.5,0,0.9,0.4,1.3,1c0.4,0.6,0.8,1.4,1.1,2.2c0.4,0.9,0.6,1.9,0.8,3.2
		c0.2,1.3,0.2,2.3,0.1,3.3c-0.1,0.9-0.2,1.6-0.3,2c-0.1,0.4-0.4,0.8-0.7,1.1c-0.3,0.3-0.7,0.6-1.1,0.9c-0.4,0.3-1.1,0.4-2.2,0.4
		c0.1-0.2,0.9-0.4,2.5-0.7c1.6-0.3,3.1-0.9,4.4-1.7c1.4-0.8,2.5-1.9,3.5-3.2c1-1.3,1.7-3.2,2.2-5.6c0-0.1-0.1,0.8-0.2,2.7
		c-0.2,1.9-0.1,3.9,0.1,6.1c0,0.1,0.6,0.1,1.7-0.1c1.1-0.2,2.6-3.1,4.6-8.9c0,0.1,0,1,0.1,2.8c0,1.7,0.1,3.2,0.1,4.3
		c0,1.1,0.2,2,0.6,2.6c0.4,0.6,0.9,0.9,1.5,1c0.6,0.1,1.1,0,1.5-0.4s0.7-0.7,0.9-0.9c0.2-0.3,0.4-0.7,0.7-1.1
		c0.3-0.5,0.8-1.6,1.7-3.5c0.8-1.8,2-7.1,3.4-15.7c0-0.1,0.1,2.8,0.2,8.6c0.1,5.8,0.2,8.8,0.2,8.8"/>
	<path id="STROKE_891e5204-2c58-4b79-beda-387c161a748e" class="st9" d="M110.1,22.3c0.4,0.3,1.3,0.5,2.7,0.8c1.5,0.2,3.1,0,4.9-0.6
		c1.8-0.6,3-1.1,3.8-1.4"/>
	<path id="STROKE_729b4db5-88f4-4604-850b-e393e50618df" class="st9" d="M375.5,21.7l0.5-0.3l0-0.1c0-0.4-0.2-0.7-0.7-1.1
		c-0.5-0.3-1.2-0.6-2.2-0.7c-0.9-0.1-1.7-0.1-2.4,0c-0.6,0.1-1.5,0.9-2.5,2.5c-1,1.5-1.8,3.1-2.3,4.7c-0.5,1.6-0.8,3.4-1,5.2
		c-0.1,1.8-0.2,3.3-0.1,4.5c0.1,1.2,0.3,2.2,0.8,2.9c0.5,0.7,1.4,1.3,2.7,1.7c1.3,0.4,2.6,0.4,3.8,0.1c1.3-0.4,2.5-0.9,3.7-1.5
		s4-3.3,8.3-8c0,0,0,0,0.1,0c0,0-0.1,0.1-0.4,0.3c-0.3,0.2-0.7,0.4-1.1,0.6c-0.4,0.1-0.9,0.3-1.5,0.6c-0.6,0.3-1.1,0.6-1.5,0.9
		c-0.4,0.3-0.7,0.6-0.9,0.8c-0.2,0.2-0.3,0.5-0.4,0.7c-0.1,0.3-0.2,0.8-0.4,1.6c-0.1,0.8-0.1,1.4-0.1,1.8c0.1,0.4,0.3,0.8,0.7,1.1
		c0.4,0.3,1.1,0.5,2.1,0.6c0.9,0,1.7-0.2,2.4-0.7c0.6-0.5,1.1-0.9,1.3-1.3c0.3-0.4,0.5-1,0.6-1.8c0.1-0.8,0.2-1.4,0.2-1.8
		c0-0.4-0.1-0.9-0.3-1.4c-0.2-0.5-1-1-2.3-1.3c0.3,0.4,1.2,0.5,2.6,0.5c1.4-0.1,2.6-0.4,3.7-0.9c1-0.6,2.4-1.2,4.2-1.8
		c1.8-0.7,3.2-1.1,4.2-1.2c1-0.2,1.8-0.2,2.2-0.1c0.5,0.1,0.8,0.2,0.9,0.3c0.2,0.1,0.2,0.2,0.2,0.2c0,0,0.1,0.1,0.1,0.3
		c0.1,0.2-0.2,0.8-0.9,1.9c-0.7,1.1-1.3,2-1.6,2.8c-0.4,0.8-0.6,1.3-0.7,1.8c-0.1,0.4-0.1,0.7-0.1,1c0,0.2,0,0.5,0,0.7
		c0,0.3,0,0.4,0,0.5c0,0.1,0.3,0.3,1.1,0.8c0.7,0.4,1.6,0.7,2.7,0.7c1.1,0,2.5-0.4,4.3-1.5c1.8-1,3.4-2.6,4.8-4.8l0.7-0.1
		c0.6,0.1,0.9,0.1,0.9,0.1c0.7,0,1-0.1,1-0.1c0.4-0.2,0.7-0.4,0.7-0.4c0.2-0.1,0.4-0.3,0.8-0.7c0.4-0.3,0.7-0.7,0.9-1
		c0.2-0.3,0.3-0.5,0.3-0.5c0.2-0.6,0.3-1,0.2-1c0-0.2-0.1-0.3-0.1-0.3c0,0-0.4-0.1-1.2-0.2c-0.8-0.1-1.6,0.1-2.4,0.7s-1.5,1.2-2,1.8
		c-0.5,0.6-0.9,1.3-1.1,2.3c-0.2,0.9-0.3,1.6-0.3,2.1c0,0.5,0.1,0.9,0.3,1.1c0.2,0.3,0.3,0.5,0.5,0.6c0.1,0.1,0.5,0.3,1.1,0.6
		s1.5,0.5,2.8,0.7c1.2,0.1,2.7-0.1,4.4-0.8c1.7-0.6,3-1.5,3.9-2.6c0.9-1.1,1.5-1.7,1.6-2"/>
	<path id="STROKE_e62df552-8138-43f7-afb9-8dcb230aa120" class="st9" d="M684.9,25.1c0-0.4,0.1-0.7,0.2-0.9c0.1-0.2,0.1-0.8,0-1.9
		c-0.1-1.1-0.2-1.9-0.4-2.4c-0.2-0.5-0.3-0.8-0.4-0.9c-0.1-0.1-0.1-0.1-0.1-0.2c0,0-0.2-0.1-0.5-0.1c-0.3-0.1-0.8,0.3-1.5,1.2
		c-0.7,0.8-1.6,2.2-2.6,4.2c-1,1.9-1.9,3.9-2.4,5.9c-0.6,2-0.9,3.7-1,5.2c-0.1,1.5,0,2.6,0.2,3.4c0.2,0.8,0.5,1.4,1,1.7
		c0.5,0.3,1,0.5,1.6,0.6c0.6,0.1,1.6-0.3,2.8-1.1c1.3-0.8,2.4-2,3.4-3.6c1-1.6,1.7-2.9,2.2-3.9c0.5-1,0.9-2.5,1.3-4.4
		c0.4-1.9,0.5-3.5,0.5-4.8s-0.3-2.2-0.6-2.6c-0.3-0.5-0.9-0.8-1.8-1.1c-0.9-0.3-1.9,0.2-3,1.4c-1.1,1.2-1.7,1.9-1.9,2.1"/>
	<path id="STROKE_c1d79f2a-a8a6-4738-a3bb-b976c8cf4f06" class="st9" d="M691.8,31.6c0,0.1-0.1,0.8-0.5,2c-0.4,1.3-0.6,2.4-0.7,3.4
		c-0.1,1-0.1,1.7,0.1,2.3c0.2,0.6,1,1,2.3,1.3c0.3-0.1,1.8-3.2,4.5-9.5c0.1,0,0,0.6-0.3,1.7c-0.2,1.1-0.4,2-0.5,2.7
		c-0.1,0.7,0,1.3,0.2,1.8c0.2,0.5,0.4,0.8,0.6,0.9c0.2,0.1,0.3,0.1,0.3,0.1c0,0,0.1,0,0.2,0.1c0.1,0,0.5,0,1.1-0.2
		c0.6-0.1,1.2-0.8,2-2c0.8-1.2,1.5-2.6,2.3-4.3c0.8-1.7,1.5-3.4,2-4.9c0.5-1.6,1.2-4.3,2-8.1c0.1,0.2-0.2,1.6-1,4.2
		c-0.7,2.6-1.3,4.8-1.5,6.5c-0.3,1.8-0.5,3.2-0.5,4.3c-0.1,1.1,0.1,2,0.4,2.7c0.3,0.7,0.5,1.1,0.7,1.2c0.1,0.1,0.3,0.2,0.4,0.3
		s0.4,0.2,0.8,0.3c0.4,0.1,0.8,0,1.4-0.2c0.6-0.2,0.9-0.3,1-0.3c0.1,0,1.1-2,2.9-6c0,0,0.1,0.1,0.1,0.3c0.1,0.2-0.2,1.8-0.8,4.7
		c-0.6,2.9-0.9,6.9-0.9,12c0,0,0.2-1.5,0.6-4.3c0.4-2.8,0.7-5.2,1-7.2c0.3-2,0.5-3.6,0.8-4.8c0.2-1.2,0.4-2.1,0.5-2.5
		c0.1-0.5,0.3-0.9,0.6-1.1c0.3-0.3,0.5-0.4,0.7-0.5c0.2,0,0.4,0.1,0.7,0.3c0.2,0.2,0.4,0.4,0.5,0.5c0.1,0.1,0.1,0.3,0.2,0.5
		c0.1,0.2,0.3,0.6,0.5,1.2s0.5,1.3,0.5,2.1c0.1,0.8,0.1,1.3,0.1,1.6c0,0.3-0.1,0.6-0.3,0.9c-0.2,0.3-0.4,0.5-0.6,0.6
		c-0.2,0.2-0.3,0.3-0.4,0.3c-0.1,0.1-0.5,0.1-1.1,0.2c-0.7,0.1-1.2,0.2-1.6,0.3c-0.4,0.2-0.6,0.3-0.6,0.5c-0.1,0.2-0.1,0.3-0.1,0.3
		c0.2,0,0.8-0.1,2-0.3c1.1-0.3,2.2-0.6,3.2-0.9c1-0.3,1.7-0.6,2.1-1c0.4-0.4,0.7-0.7,1-1.1c0.3-0.4,0.4-0.5,0.5-0.5
		c0,0,0.9-1.7,2.8-4.9c0,0-0.1,2.6-0.3,8c0.3,0.2,0.5,0.2,0.5,0.2c0.6,0,0.9,0,0.9,0c0.4-0.1,1.1-1,2.3-2.8c1.2-1.8,2.2-3.6,3.1-5.5
		l0,1.3c-0.1,0.5-0.3,2.3-0.6,5.3c0.2,0.7,1.2,0.1,2.8-1.9c1.7-1.9,2.9-3.6,3.8-5.1c0.9-1.4,1.6-3.1,2.3-5c0.7-1.9,1.2-4.6,1.6-8
		c-0.1,0-0.6,1.6-1.4,4.6c-0.8,3.1-1.3,5.6-1.6,7.5c-0.2,1.9-0.3,3.4-0.2,4.4c0.1,1,0.2,1.7,0.4,2.1c0.2,0.5,0.5,0.9,1,1.4
		c0.5,0.5,1.1,0.3,1.9-0.4c0.7-0.8,1.2-1.4,1.5-1.9"/>
	<path id="STROKE_a4024d9b-8b0e-4731-8f6d-e7f527c3f8e7" class="st9" d="M699,25.4c-0.1,0.3,2.2,0.1,6.7-0.6c4.6-0.7,7-1.1,7.5-1.2"
		/>
	<path id="STROKE_27afa7b0-590b-44a4-a1e4-4bfd41e54dee" class="st9" d="M728,24c0.7-0.1,1-0.1,1.1-0.1c0.4,0,2.1,0,5.1,0
		c3.1,0,5.6-0.2,7.6-0.5c2-0.3,3.3-0.6,3.8-0.8"/>
	<path id="STROKE_41cc9fda-1c23-41e6-afce-fdc89d5f0160" class="st9" d="M335.3,38.2c3.4-2.7,5.2-4.2,5.4-4.3c0.2-0.1,1.2-0.9,3-2.4
		"/>
	<path id="STROKE_3719a9d8-de0c-4562-a5bb-54ab0b2982d7" class="st9" d="M342.9,30.9c-0.8-0.4-1.3-0.6-1.4-0.7
		c-0.2,0-0.7-0.3-1.7-0.8c-0.9-0.5-2.3-1.1-4.2-2l-1.5-0.7"/>
	<path id="STROKE_192cde81-4d16-433c-8b55-c130a25feabd" class="st9" d="M335.3,38.2c0.2-0.2,0.4-0.3,0.6-0.5
		c0.2-0.2,0.4-0.3,0.6-0.5c0.2-0.2,0.4-0.3,0.5-0.4c0.2-0.1,0.4-0.3,0.6-0.5c0.2-0.2,0.5-0.4,0.8-0.6c0.3-0.2,0.5-0.4,0.7-0.6
		c0.2-0.2,0.4-0.3,0.6-0.5c0.2-0.1,0.4-0.3,0.5-0.4c0.2-0.2,0.3-0.2,0.3-0.3c0,0,0.1-0.1,0.3-0.2c0.2-0.1,0.4-0.3,0.6-0.5
		c0.3-0.2,0.6-0.5,0.9-0.8c0.4-0.3,0.8-0.7,1.3-1"/>
	<path id="STROKE_26f9009d-bcc4-4a11-83fc-500f03d36562" class="st9" d="M343.8,31.3c-1-0.5-1.6-0.8-1.7-0.8c-0.1,0-0.3-0.1-0.6-0.2
		c-0.2-0.1-0.5-0.2-0.7-0.3c-0.2-0.1-0.5-0.2-0.7-0.4c-0.3-0.1-0.6-0.3-0.9-0.4c-0.3-0.2-0.7-0.3-1-0.5c-0.4-0.2-0.8-0.4-1.2-0.6
		c-0.4-0.2-0.9-0.4-1.3-0.6l-1.5-0.7"/>
	<path id="STROKE_bd20f2de-f312-4481-94f7-13ce48b1cee4" class="st9" d="M629.3,39.8c3.4-2.7,5.2-4.2,5.4-4.3c0.2-0.1,1.2-0.9,3-2.4
		"/>
	<path id="STROKE_731d5546-8fc4-4aae-8753-80f4cf299b0b" class="st9" d="M636.9,32.4c-0.8-0.4-1.3-0.6-1.4-0.7
		c-0.2,0-0.7-0.3-1.6-0.8c-0.9-0.5-2.3-1.1-4.2-2l-1.5-0.7"/>
	<path id="STROKE_50a18e7c-f1d1-4a17-b7a7-49298c37e0d7" class="st9" d="M629.3,39.8c0.2-0.2,0.4-0.3,0.6-0.5
		c0.2-0.2,0.4-0.3,0.6-0.5c0.2-0.2,0.4-0.3,0.5-0.4c0.2-0.1,0.4-0.3,0.6-0.5c0.2-0.2,0.5-0.4,0.8-0.6c0.3-0.2,0.5-0.4,0.7-0.6
		c0.2-0.2,0.4-0.3,0.6-0.5c0.2-0.1,0.4-0.3,0.5-0.4c0.2-0.2,0.3-0.2,0.3-0.3c0,0,0.1-0.1,0.3-0.2c0.1-0.1,0.4-0.3,0.6-0.5
		c0.3-0.2,0.6-0.5,0.9-0.8c0.4-0.3,0.8-0.7,1.3-1"/>
	<path id="STROKE_80362fe5-b6f5-4b4b-9385-b11c2f2b0ae8" class="st9" d="M637.8,32.9c-1-0.5-1.6-0.8-1.7-0.8c-0.1,0-0.3-0.1-0.6-0.2
		c-0.2-0.1-0.5-0.2-0.7-0.3s-0.5-0.2-0.7-0.4c-0.3-0.1-0.6-0.3-0.9-0.4c-0.3-0.2-0.7-0.3-1-0.5c-0.4-0.2-0.8-0.4-1.2-0.6
		c-0.4-0.2-0.9-0.4-1.3-0.6l-1.5-0.7"/>
	<path id="STROKE_4adc5293-4dc5-4e77-b4ca-17ead92f4f8c" class="st9" d="M449.1,32.9c1.5,0,3.2,0,5-0.1c1.8,0,3.4,0,4.9,0
		c1.5,0,3.5,0,6-0.1c2.5,0,9.6-0.1,21.1-0.2c11.5-0.1,21.7-0.2,30.4-0.3s15.6-0.1,20.5-0.1c4.9,0,8,0,9.2,0c1.2,0,2.5,0,3.9,0
		c1.4,0,2.8,0,4.3,0c1.5,0,2.9,0,4.1,0c1.2,0,2.6,0,4.1,0c1.5,0,3.6,0,6.2,0c2.6,0,8,0.1,16,0.2c8.1,0.1,13.2,0.2,15.3,0.3
		c2.1,0.1,5.6,0.2,10.6,0.3c5,0.1,8.1,0.2,9.5,0.3c1.4,0.1,3.4,0.1,5.9,0.2c2.6,0.1,4.7,0.2,6.5,0.3"/>
	<path id="STROKE_67240aea-ea4b-434f-93fc-25dd436b13c5" class="st9" d="M153.9,31.2c1.5,0,3.2,0,5-0.1c1.8,0,3.4,0,4.9,0
		c1.5,0,3.5,0,6-0.1c2.5,0,9.6-0.1,21.1-0.2c11.5-0.1,21.7-0.2,30.4-0.3c8.8-0.1,15.6-0.1,20.5-0.1c4.9,0,8,0,9.2,0s2.5,0,3.9,0
		c1.4,0,2.8,0,4.3,0c1.5,0,2.9,0,4.1,0c1.2,0,2.6,0,4.1,0c1.5,0,3.6,0,6.2,0c2.6,0,8,0.1,16,0.2c8.1,0.1,13.2,0.2,15.3,0.3
		c2.1,0.1,5.6,0.2,10.6,0.3c5,0.1,8.1,0.3,9.5,0.3c1.4,0.1,3.4,0.1,5.9,0.2c2.6,0.1,4.7,0.2,6.5,0.3"/>
	<path id="STROKE_8537e4e9-2a6f-4fd6-9703-f76b283e14af" class="st8" d="M51.3,281.8C51.3,281.8,51.3,281.8,51.3,281.8
		C51.3,281.8,51.3,281.8,51.3,281.8c-0.1,0-0.3,2-0.7,6c-0.4,4-0.8,10.6-1.2,19.8l-0.1,0"/>
	<path id="STROKE_82b1be3d-5852-42da-83bb-4b81d235d185" class="st8" d="M51.2,280.3l0.5,0c0.1,0,0.5,0.1,1,0.5
		c0.5,0.4,1.2,1.6,1.9,3.6c0.7,2,1.3,3.6,1.6,4.8c0.4,1.1,0.7,2.2,1.2,3.1c0.4,1,0.8,1.7,1.1,2.1s0.6,0.8,1,1
		c0.4,0.2,0.6,0.3,0.8,0.3c0.2,0,0.3,0,0.4,0c0.1,0,0.3-0.1,0.5-0.2c0.2-0.1,0.5-0.3,0.8-0.6c0.3-0.3,0.6-1,0.8-2.2
		c0.3-1.2,0.4-2.4,0.5-3.6c0.1-1.3,0.2-2.6,0.4-3.9c0.2-1.4,0.6-3,1.4-4.9c0.7-1.9,1.7-3.5,2.8-4.9c0.1,0,0.2,2.5,0.3,7.3
		c0.1,4.8,0.3,8.7,0.4,11.7c0.1,3,0.3,5.6,0.5,7.9c0.2,2.3,0.6,4.2,1.3,5.8l0.2,0"/>
	<path id="STROKE_7fe617fc-9835-4cfe-a216-47664988784b" class="st9" d="M82.6,300.6l0,0.4c0,0.1,0.3,0.2,0.8,0.2c0.5,0,1,0,1.5-0.1
		c0.5-0.1,0.9-0.2,1.4-0.5c0.5-0.3,0.8-0.5,1.2-0.8c0.3-0.3,0.6-0.8,0.9-1.4c0.3-0.6,0.4-1.3,0.3-2.1c-0.3-0.3-0.9-0.2-1.7,0.4
		c-0.8,0.5-1.5,1.3-2.1,2.4c-0.6,1.1-1,2.1-1.1,3c-0.1,0.9-0.2,1.5-0.2,1.9c0,0.4,0.1,0.9,0.5,1.6c0.4,0.7,0.8,1.1,1.2,1.4
		s0.8,0.5,1.1,0.6s0.8,0.3,1.6,0.4c0.8,0.1,1.6,0.1,2.4-0.2c0.8-0.2,1.8-1.4,2.8-3.4c1-2,1.8-3.8,2.2-5.3c0.5-1.5,1-3.3,1.5-5.3
		c0.6-2,0.9-6.6,0.9-13.8c-0.1-0.3-0.3,0.4-0.7,2.1c-0.3,1.6-0.5,3.5-0.5,5.5c0,2.1-0.1,3.8-0.1,5.3c0,1.5,0,3.1,0.2,4.8
		c0.1,1.7,0.3,3.1,0.4,4.1c0.2,1.1,0.3,1.8,0.5,2.3c0.2,0.5,0.3,0.8,0.4,0.9c0.1,0.2,0.2,0.3,0.3,0.3c0.1,0,0.3,0,0.4,0
		c0.1,0,0.2,0,0.2-0.1c0,0,0.1,0,0.1-0.1c0.1,0,0.5-0.9,1.4-2.7c0.9-1.8,1.6-3.3,2.2-4.6c0.6-1.3,1.2-2.4,1.9-3.1
		c0.7-0.8,1.2-1.3,1.6-1.5c0.4-0.2,0.7-0.4,1.1-0.5c0.3-0.1,0.8-0.2,1.2-0.2c0.2,0.1-0.2,0.5-1.1,1.2c-0.9,0.7-1.5,1.2-2,1.5
		c-0.4,0.3-0.9,0.8-1.5,1.3c-0.6,0.5-1.2,1.2-1.8,2c-0.6,0.8-1,1.6-1.2,2.3c-0.2,0.7-0.3,1.3-0.4,1.8c-0.1,0.5-0.1,0.9,0,1.1
		c0,0.2,0.3,0.4,0.7,0.5c0.4,0.1,0.9,0.2,1.3,0c0.4-0.1,1-0.5,1.8-1.1s1.6-1.5,2.4-2.7c0.9-1.2,1.5-2.5,2-3.8
		c0.5-1.3,0.7-2.7,0.6-4.1c-0.1-0.1-0.1-0.1-0.1-0.1c0,0-0.1,0.1-0.3,0.2c-0.2,0.1-0.4,0.7-0.6,1.6c-0.2,0.9-0.2,1.8-0.1,2.8
		s0.3,1.8,0.6,2.4c0.2,0.6,0.6,1.2,1,1.8c0.4,0.6,0.8,0.9,1.2,1c0.4,0.1,0.8,0.1,1.2-0.1"/>
	<path id="STROKE_3945899c-9e1c-4d03-95e4-4123638feb99" class="st9" d="M88.5,284.1c0.3-0.1,1-0.2,2.3-0.5c1.2-0.2,3-0.5,5.2-0.8
		c2.3-0.3,4.2-0.6,5.9-0.9c1.7-0.3,3.5-0.6,5.3-1c1.9-0.4,3.1-0.7,3.7-0.9"/>
</g>
<g id="Layer_2">
</g>
</svg>
